<svg width="354" height="354" viewBox="0 0 354 354" fill="none" xmlns="http://www.w3.org/2000/svg">
<g clip-path="url(#clip0_258_34)">
<path d="M314.601 0H39.399C17.7295 0 0 17.7 0 39.3333V314.667C0 336.3 17.7295 354 39.399 354H314.601C336.27 354 354 336.3 354 314.667V39.3333C354 28.9015 349.849 18.8969 342.46 11.5205C335.072 4.14403 325.05 0 314.601 0ZM283.279 274.94C282.688 275.137 281.9 275.333 281.309 275.333H236.788C234.86 275.366 232.966 274.821 231.351 273.77C229.736 272.718 228.474 271.208 227.726 269.433L179.265 156.547C178.871 155.367 177.689 154.777 176.705 155.17C176.39 155.288 176.104 155.472 175.866 155.71C175.628 155.947 175.444 156.232 175.326 156.547L145.185 228.33C144.594 229.707 145.185 231.083 146.564 231.673C146.958 231.87 147.155 231.87 147.549 231.87H180.644C182.614 231.87 184.584 233.05 185.372 235.017L199.95 267.27C201.329 270.22 199.753 273.76 196.798 275.137C195.616 275.137 194.828 275.333 194.04 275.333H73.4791C70.5242 275.333 67.9633 272.777 67.9633 269.827C67.9633 269.04 68.1603 268.45 68.3573 267.663L145.185 85.1567C146.761 81.2233 150.701 78.6667 154.838 78.6667H199.162C203.496 78.6667 207.239 81.2233 208.815 85.1567L286.037 267.663C287.416 270.417 286.234 273.76 283.279 274.94Z" fill="white"/>
</g>
<defs>
<clipPath id="clip0_258_34">
<rect width="354" height="354" fill="white"/>
</clipPath>
</defs>
</svg>
