<?xml version="1.0" encoding="UTF-8"?>
<svg id="Calque_1" data-name="Calque 1" xmlns="http://www.w3.org/2000/svg" viewBox="0 0 839.33 343.36">
  <defs>
    <style>
      .cls-1 {
        fill: #261815;
      }

      .cls-1, .cls-2, .cls-3, .cls-4, .cls-5, .cls-6, .cls-7 {
        stroke-width: 0px;
      }

      .cls-2 {
        fill: #846b4b;
      }

      .cls-3 {
        fill: #251714;
      }

      .cls-4 {
        fill: #291a16;
      }

      .cls-5 {
        fill: #281a16;
      }

      .cls-6 {
        fill: #281916;
      }

      .cls-7 {
        fill: #261714;
      }
    </style>
  </defs>
  <path class="cls-2" d="m0,243.26v-19.08h161.38c-11.24-18.61-21.44-30.98-26.82-45.17C110.29,114.98,62.92,97.7,0,109.7v-19.08h73.7C50.99,37.62,49.05,36.36,0,38.16V0h839.33v38.16c-46.73-1.69-59.76,7.33-70.91,52.47h70.91v19.08c-62.67-11.52-110.74,4.76-134.46,69.34-3.46,9.43-11.07,17.27-16.03,26.25-2.74,4.96-3.98,10.76-6.85,18.88h157.35v19.08c-46.78.17-93.57.4-140.35.5-36.5.08-60.12,21.17-66.6,61.51h206.95v38.08c-279.78.02-559.56.02-839.33,0v-38.08h213.9c-9.46-14.97-16.44-23.57-20.78-33.35-9.94-22.38-25.58-29.86-50.32-28.83-47.52,1.98-95.19.32-142.8.17Zm623.66-18.15c-26.69,28.32-48.99,51.98-72.89,77.35,29.18,4.78,52.19-5.02,63.71-25.33,34.83-61.43,69.5-122.94,104.03-184.54,3.98-7.1,6.65-14.93,10.44-23.59-12.51-1.77-21.58-3.06-31.38-4.45,1.72-9.15,3.14-16.66,4.74-25.12-6.75-.67-12.2-1.67-17.65-1.68-76.22-.1-152.45-.36-228.67.4-7.61.08-15.17,6.56-22.75,10.06,7.51,4.45,14.84,12.34,22.57,12.75,29.08,1.52,58.29.61,90.8.61-4.53,19.24-8.23,34.9-13.14,55.77h115.39c-33.23,37.49-60.95,68.77-92.06,103.87,25.16,1.47,42.82,2.5,66.86,3.91ZM293.09,63.36c9.66-.74,16.62-1.66,23.59-1.73,25.4-.26,50.84.38,76.18-.9,4.61-.23,8.85-7.85,13.26-12.05-4.26-3.56-8.1-7.94-12.92-10.4-3.19-1.63-7.79-.61-11.76-.61-74.67-.02-149.33-.08-224,.07-6.67.01-13.33,1.34-20.66,2.12,1.73,9.64,3.06,17.03,4.51,25.13-10.64,1.44-19.75,2.67-29.22,3.94.34,3.67-.16,6.37.87,8.21,38.77,69.25,76.33,139.24,117.56,207,9.71,15.96,31.4,25.87,58.34,18.85-25.28-26.84-47.73-50.67-73.51-78.04,23.86-1.67,42.53-2.98,66.56-4.66-31.65-35.69-59.02-66.56-86.39-97.43,1.04-2.48,2.08-4.96,3.12-7.44h106.85c-4.78-20.1-8.37-35.16-12.39-52.06Zm205.14,24.83h-155.47c1.06,10.2,1.14,18.13,2.78,25.72,11.58,53.54,25.16,106.72,34.54,160.63,4.58,26.32,16,35.41,40.83,31.25,1.55-.26,3.21-.25,4.76,0,19.14,2.97,28.28-4.32,31.94-24.35,8.56-46.84,19.61-93.22,29.58-139.81,3.61-16.86,6.98-33.76,11.04-53.43Zm-3.92,156.56c2.3,1.43,4.61,2.86,6.91,4.29,31.52-36,63.04-72,94.55-107.99-1.2-2-2.4-4-3.6-6.01-17.98,0-36.04-.93-53.89.57-5.24.44-12.66,6.85-14.39,12.08-10.61,32.11-19.87,64.66-29.58,97.06Zm-248.24-109.5c-.87,2.11-1.74,4.23-2.6,6.34,31.18,35.34,62.35,70.69,93.53,106.03,2.39-1.46,4.78-2.93,7.17-4.39-9.84-33.16-19.47-66.38-29.84-99.37-1.12-3.57-6.52-8.07-10.1-8.22-19.36-.81-38.77-.38-58.16-.38Zm110.48,167.6c-17.56-19.44-32.61-35.19-46.58-51.84-13.69-16.32-28.86-13.18-46.39-7.23,57.64,71.11,47.68,64.7,92.96,59.06Zm130.47-1.99c52.09,15.26,61.39-32.62,92.46-57.48-56.88-14.76-64.96,35.96-92.46,57.48Z"/>
  <path class="cls-3" d="m0,109.7c62.92-12,110.29,5.27,134.57,69.3,5.38,14.19,15.57,26.56,26.82,45.17H0v-114.47Z"/>
  <path class="cls-3" d="m839.33,224.18h-157.35c2.87-8.12,4.11-13.92,6.85-18.88,4.96-8.98,12.57-16.82,16.03-26.25,23.72-64.58,71.8-80.86,134.46-69.34v114.47Z"/>
  <path class="cls-1" d="m0,243.26c47.61.15,95.28,1.81,142.8-.17,24.74-1.03,40.38,6.44,50.32,28.83,4.34,9.78,11.32,18.38,20.78,33.35H0v-62.01Z"/>
  <path class="cls-1" d="m839.33,305.26h-206.95c6.47-40.33,30.09-61.43,66.6-61.51,46.78-.1,93.57-.33,140.35-.5v62.01Z"/>
  <path class="cls-5" d="m0,38.16c49.05-1.8,50.99-.54,73.7,52.47H0v-52.47Z"/>
  <path class="cls-6" d="m839.33,90.62h-70.91c11.15-45.14,24.18-54.16,70.91-52.47v52.47Z"/>
  <path class="cls-1" d="m623.66,225.1c-24.04-1.4-41.7-2.44-66.86-3.91,31.11-35.1,58.84-66.38,92.06-103.87h-115.39c4.92-20.87,8.61-36.53,13.14-55.77-32.51,0-61.72.91-90.8-.61-7.72-.4-15.06-8.29-22.57-12.75,7.58-3.51,15.13-9.99,22.75-10.06,76.22-.76,152.44-.5,228.67-.4,5.45,0,10.89,1.01,17.65,1.68-1.6,8.46-3.01,15.98-4.74,25.12,9.8,1.39,18.87,2.67,31.38,4.45-3.79,8.66-6.46,16.49-10.44,23.59-34.53,61.6-69.2,123.11-104.03,184.54-11.52,20.31-34.54,30.11-63.71,25.33,23.9-25.37,46.2-49.03,72.89-77.35Z"/>
  <path class="cls-1" d="m293.09,63.36c4.02,16.91,7.61,31.96,12.39,52.06h-106.85c-1.04,2.48-2.08,4.96-3.12,7.44,27.37,30.87,54.74,61.74,86.39,97.43-24.02,1.68-42.7,2.99-66.56,4.66,25.78,27.37,48.23,51.2,73.51,78.04-26.94,7.02-48.63-2.89-58.34-18.85-41.23-67.76-78.79-137.75-117.56-207-1.03-1.84-.53-4.54-.87-8.21,9.46-1.28,18.58-2.51,29.22-3.94-1.46-8.1-2.78-15.49-4.51-25.13,7.33-.79,13.99-2.11,20.66-2.12,74.67-.14,149.33-.09,224-.07,3.97,0,8.56-1.02,11.76.61,4.82,2.46,8.66,6.84,12.92,10.4-4.41,4.21-8.65,11.82-13.26,12.05-25.34,1.27-50.78.63-76.18.9-6.97.07-13.92.99-23.59,1.73Z"/>
  <path class="cls-7" d="m498.23,88.2c-4.06,19.67-7.44,36.58-11.04,53.43-9.96,46.59-21.01,92.97-29.58,139.81-3.66,20.03-12.8,27.32-31.94,24.35-1.55-.24-3.21-.25-4.76,0-24.82,4.16-36.25-4.93-40.83-31.25-9.38-53.91-22.96-107.09-34.54-160.63-1.64-7.59-1.73-15.52-2.78-25.72h155.47Z"/>
  <path class="cls-5" d="m494.31,244.76c9.71-32.4,18.97-64.96,29.58-97.06,1.73-5.23,9.15-11.64,14.39-12.08,17.85-1.5,35.91-.57,53.89-.57,1.2,2,2.4,4,3.6,6.01-31.52,36-63.04,72-94.55,107.99-2.3-1.43-4.61-2.86-6.91-4.29Z"/>
  <path class="cls-5" d="m246.07,135.25c19.39,0,38.8-.43,58.16.38,3.58.15,8.97,4.65,10.1,8.22,10.38,32.99,20,66.21,29.84,99.37-2.39,1.46-4.78,2.93-7.17,4.39-31.18-35.34-62.35-70.69-93.53-106.03.87-2.11,1.74-4.23,2.6-6.34Z"/>
  <path class="cls-4" d="m356.55,302.86c-45.29,5.63-35.32,12.05-92.96-59.06,17.52-5.95,32.69-9.09,46.39,7.23,13.97,16.65,29.02,32.39,46.58,51.84Z"/>
  <path class="cls-5" d="m487.02,300.86c27.5-21.52,35.58-72.25,92.46-57.48-31.06,24.87-40.37,72.74-92.46,57.48Z"/>
</svg>