<svg width="354" height="354" viewBox="0 0 354 354" fill="none" xmlns="http://www.w3.org/2000/svg">
<path d="M78.6311 14.6145C83.2688 9.97904 88.7742 6.30252 94.8329 3.79494C100.892 1.28735 107.385 -0.0021734 113.942 2.74968e-06H163.867V99.8508H113.942C104.065 99.8541 94.4095 96.9278 86.1963 91.4422C77.983 85.9565 71.5814 78.158 67.8013 69.0333C64.0212 59.9086 63.0325 49.8677 64.9602 40.1809C66.888 30.4941 71.6456 21.5968 78.6311 14.6145ZM241.025 99.8508H191.099V2.74968e-06H241.025C254.266 2.74968e-06 266.965 5.25999 276.327 14.6228C285.69 23.9856 290.95 36.6844 290.95 49.9254C290.95 63.1665 285.69 75.8652 276.327 85.228C266.965 94.5908 254.266 99.8508 241.025 99.8508ZM241.025 127.083C227.784 127.083 215.085 132.343 205.722 141.706C196.359 151.069 191.099 163.767 191.099 177.008C191.099 190.249 196.359 202.948 205.722 212.311C215.085 221.674 227.784 226.934 241.025 226.934C254.266 226.934 266.965 221.674 276.327 212.311C285.69 202.948 290.95 190.249 290.95 177.008C290.95 163.767 285.69 151.069 276.327 141.706C266.965 132.343 254.266 127.083 241.025 127.083ZM78.6311 268.798C83.2673 264.16 88.772 260.48 94.8308 257.969C100.89 255.458 107.384 254.166 113.942 254.166H163.867V304.091C163.865 312.3 161.838 320.382 157.966 327.621C154.095 334.859 148.498 341.032 141.671 345.591C134.845 350.151 126.999 352.957 118.83 353.76C110.66 354.564 102.418 353.341 94.8341 350.199C87.2501 347.057 80.5578 342.093 75.3499 335.748C70.1419 329.402 66.5791 321.87 64.9768 313.819C63.3745 305.768 63.7823 297.446 66.164 289.59C68.5457 281.734 72.8278 274.604 78.6311 268.798ZM113.942 127.083C100.701 127.083 88.0022 132.343 78.6394 141.706C69.2766 151.069 64.0166 163.767 64.0166 177.008C64.0166 190.249 69.2766 202.948 78.6394 212.311C88.0022 221.674 100.701 226.934 113.942 226.934H163.867V127.083H113.942Z" fill="white"/>
</svg>
