<svg width="47" height="47" viewBox="0 0 47 47" fill="none" xmlns="http://www.w3.org/2000/svg">
<path d="M40.8893 6.06871C39.4539 4.63325 37.7266 3.9165 35.7056 3.9165H11.2519C9.23093 3.9165 7.50368 4.63325 6.06822 6.06871C4.63277 7.50417 3.91602 9.23142 3.91602 11.2524V35.7061C3.91602 37.7271 4.63277 39.4544 6.06822 40.8898C7.50368 42.3253 9.23093 43.042 11.2519 43.042H16.9585C17.3306 43.042 17.6106 43.0283 17.7986 43.0029C18.0174 42.959 18.2148 42.8424 18.3587 42.6719C18.5448 42.4761 18.6388 42.1921 18.6388 41.82L18.6251 40.0869C18.6172 38.9824 18.6133 38.109 18.6133 37.4628L18.0258 37.5646C17.6537 37.6331 17.1837 37.6625 16.6138 37.6547C16.0199 37.6437 15.4278 37.5841 14.8435 37.4765C14.2216 37.3616 13.6361 37.0998 13.1358 36.7127C12.612 36.3164 12.2213 35.7699 12.0157 35.146L11.7611 34.5585C11.5465 34.0951 11.2769 33.6592 10.9582 33.2602C10.5939 32.7843 10.2238 32.4631 9.84977 32.2928L9.67352 32.1655C9.55062 32.0774 9.43883 31.9749 9.3406 31.86C9.24678 31.7533 9.16954 31.6332 9.11147 31.5035C9.06056 31.3841 9.10364 31.2862 9.23877 31.2098C9.37585 31.1315 9.62064 31.0943 9.97902 31.0943L10.4882 31.1726C10.827 31.2392 11.248 31.4428 11.7474 31.7816C12.2528 32.1262 12.6749 32.5791 12.9831 33.1074C13.3748 33.8026 13.8448 34.3333 14.397 34.6995C14.9493 35.0638 15.5054 35.2479 16.0655 35.2479C16.6256 35.2479 17.1093 35.2048 17.5186 35.1206C17.9144 35.0387 18.299 34.9099 18.6642 34.7368C18.817 33.6009 19.2321 32.7236 19.9117 32.1126C19.0312 32.0263 18.1585 31.8731 17.3012 31.6543C16.4646 31.4245 15.66 31.091 14.9062 30.6615C14.1175 30.2321 13.4208 29.6518 12.8558 28.9538C12.3133 28.2743 11.8668 27.3832 11.5183 26.2807C11.1716 25.1762 10.9973 23.9013 10.9973 22.458C10.9973 20.4037 11.6671 18.6549 13.0086 17.2097C12.3819 15.6665 12.4406 13.9334 13.1868 12.0162C13.6803 11.8615 14.4107 11.977 15.3781 12.3589C16.3456 12.7408 17.0545 13.0678 17.5049 13.338C17.9553 13.6122 18.3156 13.8413 18.5878 14.0274C20.1799 13.5843 21.8252 13.3616 23.4778 13.3655C25.16 13.3655 26.7894 13.5868 28.3697 14.0274L29.3371 13.4164C30.0813 12.9696 30.8662 12.5945 31.6813 12.2962C32.5821 11.9555 33.2675 11.8634 33.7454 12.0162C34.5091 13.9353 34.5757 15.6665 33.9471 17.2116C35.2885 18.6549 35.9602 20.4037 35.9602 22.46C35.9602 23.9033 35.7859 25.182 35.4374 26.2924C35.0907 27.4048 34.6403 28.2958 34.0881 28.9675C33.5131 29.6566 32.8136 30.2313 32.0259 30.6615C31.2034 31.1197 30.4044 31.4507 29.6309 31.6543C28.7737 31.8738 27.901 32.0276 27.0204 32.1145C27.9017 32.8783 28.3443 34.0827 28.3443 35.7296V41.82C28.3443 42.1079 28.3854 42.341 28.4716 42.5192C28.5112 42.605 28.5676 42.682 28.6376 42.7456C28.7076 42.8092 28.7896 42.8581 28.8789 42.8893C29.0669 42.9559 29.2314 42.999 29.3763 43.0146C29.5212 43.0342 29.7288 43.0401 29.9991 43.0401H35.7056C37.7266 43.0401 39.4539 42.3233 40.8893 40.8879C42.3228 39.4544 43.0416 37.7252 43.0416 35.7042V11.2524C43.0416 9.23142 42.3248 7.50417 40.8893 6.06871Z" fill="#09030D"/>
</svg>
