<svg width="35" height="20" viewBox="0 0 35 20" fill="none" xmlns="http://www.w3.org/2000/svg">
<path fill-rule="evenodd" clip-rule="evenodd" d="M2.85623 0C2.29122 0.00012207 1.73892 0.167759 1.26916 0.481724C0.799408 0.795689 0.433281 1.24188 0.217075 1.7639C0.000869751 2.28592 -0.0557137 2.86031 0.0544815 3.41448C0.16468 3.96865 0.436703 4.4777 0.83617 4.87729L15.1223 19.1634C15.6581 19.6991 16.3848 20 17.1424 20C17.9 20 18.6266 19.6991 19.1624 19.1634L33.4486 4.87729C33.8481 4.4777 34.1201 3.96865 34.2303 3.41448C34.3405 2.86031 34.2839 2.28592 34.0677 1.7639C33.8515 1.24188 33.4854 0.795689 33.0156 0.481724C32.5459 0.167759 31.9936 0.00012207 31.4285 0L2.85623 0Z" fill="white"/>
</svg>
