<svg width="47" height="47" viewBox="0 0 47 47" fill="none" xmlns="http://www.w3.org/2000/svg">
<path d="M25.5136 3.91843C26.9427 3.91294 28.3718 3.9273 29.8004 3.96151L30.1804 3.97522C30.619 3.99088 31.0518 4.01047 31.5747 4.03397C33.6584 4.13188 35.0801 4.46088 36.3276 4.94459C37.6201 5.44201 38.7089 6.11568 39.7977 7.20451C40.7933 8.1829 41.5638 9.3664 42.0557 10.6727C42.5394 11.9202 42.8684 13.3439 42.9663 15.4276C42.9898 15.9485 43.0094 16.3832 43.0251 16.8219L43.0368 17.2018C43.0716 18.6298 43.0866 20.0582 43.0819 21.4866L43.0838 22.9476V25.513C43.0886 26.942 43.0736 28.3711 43.0388 29.7998L43.027 30.1797C43.0114 30.6183 42.9918 31.0511 42.9683 31.574C42.8704 33.6577 42.5374 35.0794 42.0557 36.3269C41.5654 37.6346 40.7947 38.8191 39.7977 39.7971C38.8185 40.7925 37.6344 41.563 36.3276 42.055C35.0801 42.5387 33.6584 42.8677 31.5747 42.9656C31.0518 42.9891 30.619 43.0087 30.1804 43.0244L29.8004 43.0361C28.3718 43.0709 26.9427 43.086 25.5136 43.0812L24.0527 43.0831H21.4893C20.0602 43.088 18.6311 43.0729 17.2025 43.0381L16.8226 43.0263C16.3577 43.0095 15.8929 42.9899 15.4282 42.9676C13.3446 42.8697 11.9228 42.5368 10.6734 42.055C9.36657 41.5641 8.18286 40.7935 7.20519 39.7971C6.20848 38.8184 5.43725 37.6342 4.94527 36.3269C4.46156 35.0794 4.13256 33.6577 4.03465 31.574C4.01284 31.1093 3.99325 30.6445 3.9759 30.1797L3.9661 29.7998C3.93 28.3711 3.91368 26.9421 3.91715 25.513V21.4866C3.91168 20.0582 3.92604 18.6298 3.96023 17.2018L3.97394 16.8219C3.9896 16.3832 4.00919 15.9485 4.03269 15.4276C4.1306 13.3419 4.4596 11.9221 4.94331 10.6727C5.43558 9.36576 6.20833 8.18259 7.20715 7.20647C8.18415 6.20919 9.36711 5.43726 10.6734 4.94459C11.9228 4.46088 13.3426 4.13188 15.4282 4.03397L16.8226 3.97522L17.2025 3.96543C18.6305 3.92934 20.0589 3.91302 21.4873 3.91647L25.5136 3.91843ZM23.5005 13.7101C22.2031 13.6917 20.915 13.9314 19.7111 14.4152C18.5071 14.899 17.4113 15.6173 16.4874 16.5282C15.5634 17.4392 14.8298 18.5247 14.329 19.7217C13.8282 20.9187 13.5703 22.2033 13.5703 23.5008C13.5703 24.7983 13.8282 26.0829 14.329 27.2799C14.8298 28.4768 15.5634 29.5624 16.4874 30.4733C17.4113 31.3843 18.5071 32.1025 19.7111 32.5863C20.915 33.0701 22.2031 33.3098 23.5005 33.2915C26.0974 33.2915 28.5879 32.2599 30.4242 30.4236C32.2605 28.5873 33.2921 26.0967 33.2921 23.4998C33.2921 20.9029 32.2605 18.4123 30.4242 16.576C28.5879 14.7398 26.0974 13.7101 23.5005 13.7101ZM23.5005 17.6268C24.2809 17.6124 25.0563 17.7537 25.7815 18.0423C26.5067 18.331 27.1671 18.7613 27.7242 19.3081C28.2812 19.8548 28.7237 20.5071 29.0258 21.2268C29.3279 21.9466 29.4836 22.7192 29.4837 23.4998C29.4838 24.2803 29.3284 25.0531 29.0266 25.7729C28.7247 26.4927 28.2824 27.1451 27.7256 27.6921C27.1687 28.239 26.5085 28.6695 25.7834 28.9585C25.0583 29.2474 24.2829 29.3889 23.5024 29.3748C21.9443 29.3748 20.45 28.7558 19.3482 27.6541C18.2464 26.5523 17.6274 25.0579 17.6274 23.4998C17.6274 21.9417 18.2464 20.4473 19.3482 19.3455C20.45 18.2438 21.9443 17.6248 23.5024 17.6248L23.5005 17.6268ZM33.7817 10.7726C33.15 10.7979 32.5525 11.0666 32.1144 11.5226C31.6764 11.9785 31.4317 12.5863 31.4317 13.2186C31.4317 13.8508 31.6764 14.4586 32.1144 14.9145C32.5525 15.3705 33.15 15.6392 33.7817 15.6645C34.431 15.6645 35.0536 15.4066 35.5127 14.9475C35.9717 14.4885 36.2296 13.8658 36.2296 13.2166C36.2296 12.5674 35.9717 11.9447 35.5127 11.4857C35.0536 11.0266 34.431 10.7687 33.7817 10.7687V10.7726Z" fill="#09030D"/>
</svg>
