<svg width="354" height="354" viewBox="0 0 354 354" fill="none" xmlns="http://www.w3.org/2000/svg">
<g clip-path="url(#clip0_258_23)">
<path d="M59 0C43.3522 0 28.3453 6.21605 17.2807 17.2807C6.21605 28.3453 0 43.3522 0 59V295C0 310.648 6.21605 325.655 17.2807 336.719C28.3453 347.784 43.3522 354 59 354H295C310.648 354 325.655 347.784 336.719 336.719C347.784 325.655 354 310.648 354 295V59C354 43.3522 347.784 28.3453 336.719 17.2807C325.655 6.21605 310.648 0 295 0H59ZM203.235 256.748C217.395 268.155 231.516 273.76 245.637 273.622C254.29 273.622 260.937 272.049 265.539 268.863C267.688 267.468 269.437 265.538 270.612 263.262C271.788 260.986 272.351 258.443 272.246 255.883C272.274 253.091 271.69 250.327 270.535 247.786C269.38 245.244 267.681 242.986 265.559 241.172C260.937 237.141 252.205 233.109 239.363 229.058C223.944 224.593 212.026 218.831 203.668 211.751C195.447 204.671 191.278 194.798 191.121 182.113C191.121 170.136 196.313 160.126 206.697 152.043C216.805 143.98 229.707 139.928 245.44 139.928C267.349 139.928 284.95 145.258 298.206 155.937L283.062 179.517C277.61 175.276 271.355 172.185 264.674 170.431C258.67 168.423 252.398 167.329 246.069 167.186C238.596 167.186 232.598 168.563 228.114 171.297C223.649 174.05 221.427 177.649 221.427 182.113C221.427 187.03 224.161 191.199 229.628 194.661C235.135 197.984 244.496 201.662 257.751 205.694C273.76 210.453 285.167 216.805 291.932 224.731C298.717 232.657 302.1 242.765 302.1 255.018C302.1 267.565 297.281 278.382 287.605 287.468C278.087 296.416 264.241 301.097 246.069 301.529C222.273 301.529 202.37 294.39 186.361 280.112L203.235 256.748ZM94.4787 269.296C99.1003 272.187 104.646 273.622 111.136 273.622C117.921 273.622 123.526 271.675 128.01 267.781C132.475 263.75 134.717 256.748 134.717 246.797V142.524H163.922V252.422C163.489 269.433 158.592 281.705 149.211 289.198C144.092 293.551 138.125 296.792 131.688 298.717C125.726 300.534 119.532 301.481 113.3 301.529C102.483 301.529 92.8857 299.661 84.5273 295.905C75.579 291.873 68.086 284.734 62.0287 274.488L82.364 257.83C86.1007 262.884 90.152 266.7 94.4787 269.296Z" fill="white"/>
</g>
<defs>
<clipPath id="clip0_258_23">
<rect width="354" height="354" fill="white"/>
</clipPath>
</defs>
</svg>
