<svg width="47" height="47" viewBox="0 0 47 47" fill="none" xmlns="http://www.w3.org/2000/svg">
<path fill-rule="evenodd" clip-rule="evenodd" d="M35.25 5.875C36.8081 5.875 38.3025 6.49397 39.4043 7.59575C40.506 8.69752 41.125 10.1919 41.125 11.75V35.25C41.125 36.8081 40.506 38.3025 39.4043 39.4043C38.3025 40.506 36.8081 41.125 35.25 41.125H11.75C10.1919 41.125 8.69752 40.506 7.59575 39.4043C6.49397 38.3025 5.875 36.8081 5.875 35.25V11.75C5.875 10.1919 6.49397 8.69752 7.59575 7.59575C8.69752 6.49397 10.1919 5.875 11.75 5.875H35.25ZM15.6667 19.5833C15.1473 19.5833 14.6492 19.7897 14.2819 20.1569C13.9147 20.5242 13.7083 21.0223 13.7083 21.5417V31.3333C13.7083 31.8527 13.9147 32.3508 14.2819 32.7181C14.6492 33.0853 15.1473 33.2917 15.6667 33.2917C16.186 33.2917 16.6842 33.0853 17.0514 32.7181C17.4187 32.3508 17.625 31.8527 17.625 31.3333V21.5417C17.625 21.0223 17.4187 20.5242 17.0514 20.1569C16.6842 19.7897 16.186 19.5833 15.6667 19.5833ZM21.5417 17.625C21.0223 17.625 20.5242 17.8313 20.1569 18.1986C19.7897 18.5658 19.5833 19.064 19.5833 19.5833V31.3333C19.5833 31.8527 19.7897 32.3508 20.1569 32.7181C20.5242 33.0853 21.0223 33.2917 21.5417 33.2917C22.061 33.2917 22.5592 33.0853 22.9264 32.7181C23.2937 32.3508 23.5 31.8527 23.5 31.3333V24.1658C24.264 23.3348 25.1932 22.6724 26.228 22.2212C26.8801 21.9431 27.8612 21.8295 28.5427 22.045C28.7688 22.1023 28.9701 22.2315 29.1165 22.4131C29.2183 22.5502 29.375 22.8557 29.375 23.5V31.3333C29.375 31.8527 29.5813 32.3508 29.9486 32.7181C30.3158 33.0853 30.814 33.2917 31.3333 33.2917C31.8527 33.2917 32.3508 33.0853 32.7181 32.7181C33.0853 32.3508 33.2917 31.8527 33.2917 31.3333V23.5C33.2917 22.1879 32.9588 21.0207 32.2655 20.0847C31.6276 19.2358 30.7348 18.6134 29.7177 18.3085C27.9513 17.7543 25.9949 18.0617 24.6887 18.6218C24.2702 18.8009 23.8628 19.0049 23.4687 19.2328C23.3866 18.7816 23.1487 18.3735 22.7966 18.0797C22.4444 17.7858 22.0003 17.6249 21.5417 17.625ZM15.6667 13.7083C15.1473 13.7083 14.6492 13.9147 14.2819 14.2819C13.9147 14.6492 13.7083 15.1473 13.7083 15.6667C13.7083 16.186 13.9147 16.6842 14.2819 17.0514C14.6492 17.4187 15.1473 17.625 15.6667 17.625C16.186 17.625 16.6842 17.4187 17.0514 17.0514C17.4187 16.6842 17.625 16.186 17.625 15.6667C17.625 15.1473 17.4187 14.6492 17.0514 14.2819C16.6842 13.9147 16.186 13.7083 15.6667 13.7083Z" fill="#ffffff"/>
</svg>
