<svg width="27" height="27" viewBox="0 0 27 27" fill="none" xmlns="http://www.w3.org/2000/svg">
<g clip-path="url(#clip0_267_32)">
<path d="M23.0175 3.96563C21.7686 2.70818 20.2831 1.71038 18.6467 1.02977C17.0103 0.349146 15.2554 -0.000834224 13.4831 1.49318e-06C6.02437 1.49318e-06 0 6.04125 0 13.5C0 20.9588 6.02437 27 13.4831 27C19.7775 27 25.0256 22.6969 26.5275 16.875H23.0175C22.3224 18.8486 21.0319 20.5578 19.3241 21.7668C17.6164 22.9758 15.5755 23.6251 13.4831 23.625C7.8975 23.625 3.35812 19.0856 3.35812 13.5C3.35812 7.91438 7.8975 3.375 13.4831 3.375C16.2844 3.375 18.7819 4.53938 20.6044 6.37875L15.1706 11.8125H26.9831V1.49318e-06L23.0175 3.96563Z" fill="white"/>
</g>
<defs>
<clipPath id="clip0_267_32">
<rect width="27" height="27" fill="white"/>
</clipPath>
</defs>
</svg>
