<?xml version="1.0" encoding="UTF-8"?>
<svg id="Calque_1" data-name="Calque 1" xmlns="http://www.w3.org/2000/svg" xmlns:xlink="http://www.w3.org/1999/xlink" viewBox="0 0 2834.65 2834.65">
  <defs>
    <style>
      .cls-1 {
        fill: none;
      }

      .cls-1, .cls-2, .cls-3, .cls-4 {
        stroke-width: 0px;
      }

      .cls-2 {
        fill: #290B0B;
      }

      .cls-3 {
        fill: #2E0D0D;
      }

      .cls-4 {
        fill: url(#Fond_Projet_Petit);
      }
    </style>
    <pattern id="Fond_Projet_Petit" data-name="Fond Projet Petit" x="0" y="0" width="297.64" height="350.58" patternTransform="translate(-1273.32 2614.68)" patternUnits="userSpaceOnUse" viewBox="0 0 297.64 350.58">
      <g>
        <rect class="cls-1" width="297.64" height="350.58"/>
        <g>
          <path class="cls-2" d="m244.69,389.57c-3.71-6.35-6.65-12.72-.7-19.06,3.59-3.82,7.99-5.93,14.15-5.22-4.2,4.25-6.46,8.46-6.47,13.96,0,4.21,1.51,7.16,4.84,9.32,7.46,4.85,15.08,9.46,22.43,14.46,4.27,2.9,8.78,5.82,12.09,9.66,9.39,10.88,3.35,26.72-4.72,33.23-5.7,4.6-12.4,6.57-19.87,4.64-5.8-1.5-9.75-4.77-11.88-10.54-.86-2.33-3.07-4.14-4.33-6.37-1.48-2.63-3.45-5.39-3.69-8.23-.4-4.58,3.16-7.56,8.07-7.53,3.11.02,5.57-.25,7.79-3.12,2.87-3.72,11.02-4.27,15.15-1.75,5.06,3.09,6.68,7.43,4.85,13.56-.56-.47-1.11-.81-1.5-1.28-3.25-3.95-7.19-5.48-11.22-4.23-3.6,1.12-6.05,3.4-6.68,7.22-.7,4.3,1.91,9.62,5.69,11.9,5.93,3.57,14.39,2.36,19.48-2.77,5.13-5.17,6.27-14.02,2.27-20.23-5.8-9.02-14.86-13.32-24.77-15.89-7.12-1.85-14.38-1.99-21.46.69-9.37,3.55-13.68,12.14-10.99,21.78.56,1.99,1.02,4.06,1.11,6.12.1,2.29-1.65,3.3-3.42,1.96-5.5-4.18-10.31-8.93-11.93-16.06-1.37-6.03.52-9.74,6.2-12.12.85-.36,2.05-1.14,2.15-1.86.82-5.95,5.11-7.46,10.06-8.28.64-.11,1.26-.32,2.82-.73-4.03-2.33-7.47-4.08-10.66-6.21-12.05-8.02-21.92-18.31-28.15-31.32-2.22-4.63-4.86-7.01-9.16-8.97-10.67-4.84-15.57-13.98-17.48-25.05-.14-.84.06-1.74.13-3.16,7.12,7.81,14.11,14.94,23.6,19.85.43-3.6.27-7.03,1.33-10.04,1.31-3.7,3.12-7.48,5.63-10.44,3.63-4.27,8.29-4.13,12.84-.72.54.4,1.46.59,2.13.47,11.38-1.96,20.25,5.48,20.26,17.05,0,.91,0,1.83,0,3.56-1.63-1.72-2.69-2.95-3.87-4.07-4.55-4.31-9.99-6.94-16.11-5.01-6.73,2.12-11.71,7.08-11.64,14.4.05,5.37,2.05,10.8,3.65,16.06,2.06,6.73,6.71,11.93,11.4,17.15-.5-3.2-1.63-6.45-1.36-9.59.41-4.75,1.84-9.41,2.73-14.13.48-2.54.76-5.13,1.12-7.69.19-1.34.38-2.68.56-4.02,1.52.41,3.69.34,4.4,1.33,1.37,1.9,2.62,1.29,4.37,1.25,1.98-.04,4.31.61,5.91,1.76,3.04,2.19,3.97,8.21,2.06,11.46-.51.87-1.65,1.7-2.61,1.84-.61.08-1.66-1.01-2.08-1.81-2.14-4.03-4.27-4.39-7.86-1.55-5.93,4.7-5.27,11.01-4.05,17.18,1.66,8.41,9.18,15.66,17.33,17.19Z"/>
          <path class="cls-2" d="m325.88,321.82c3.52-3.64,4.4-7.74,4.98-11.84.17-1.17-.66-2.67-1.43-3.73-1.38-1.88-2.89-2.16-4.26.25-.6,1.07-1.43,2.42-2.44,2.75-1.36.44-3.31.5-4.42-.2-.93-.59-1.52-2.56-1.38-3.82.49-4.28,4.11-7.94,7.68-8.26,4.99-.45,8.47,1.73,10.28,6.44.24.63.43,1.29.71,2.13,2.7-1.3,5.27-2.82,7.9,0,2.76,2.98,2.97,7.11-.21,10.64-2.44,2.71-5.36,4.99-8.11,7.42-.74.65-1.64,1.13-2.46,1.69.04.39.08.79.11,1.18,2,.05,4.01.17,6.01.14,1.6-.03,3.27-.58,4.78-.27.99.2,2.31,1.43,2.47,2.36.19,1.12-.37,2.92-1.23,3.52-1.33.92-3.32,1.72-4.82,1.45-9.23-1.69-15.94,2.48-22.51,8.3-5.07,4.48-11.05,7.92-16.57,11.9-2.31,1.67-4.34,1.67-6.59-.14-8-6.45-16.02-12.88-24.16-19.16-1.1-.85-2.89-1.12-4.36-1.12-4.23,0-8.47.57-12.67.3-2.51-.16-4.74-1.76-3.89-4.96.9-3.35,3.38-2.83,5.88-2.12,2.04.58,4.11,1.07,6.17,1.6.2-.33.4-.67.6-1-.93-1-1.84-2.02-2.8-2.99-2.75-2.79-5.78-5.35-8.22-8.39-2.83-3.53-2.56-7.45.07-10.07,2.68-2.66,5.18-2.49,9.47.64.16.11.43.07.72.11.35-1.77.44-3.64,1.08-5.29,1.8-4.63,5.77-6.21,10.48-4.4,3.62,1.39,6.75,7.6,5.26,10.95-.43.96-1.9,2.12-2.82,2.06-1.41-.1-2.84-1.05-4.11-1.87-1.28-.82-2.37-1.92-3.55-2.9-.92,1.96-2.56,3.91-2.6,5.9-.09,3.5.76,7.03,3.61,9.68.97-1.89,1.68-3.72,2.79-5.24.58-.8,2.19-1.72,2.79-1.44,1.09.51,2.11,1.76,2.54,2.93.41,1.1.24,2.55-.04,3.76-1.42,6.21-.36,11.95,4.2,16.38,4.69,4.57,9.9,8.62,15.04,12.7.73.58,2.82.57,3.48-.04,5.44-4.98,10.8-10.04,15.94-15.33,2.67-2.74,3.7-6.29,3.34-10.24-.21-2.29-.22-4.66.17-6.92.2-1.19,1.46-2.19,2.24-3.27,1.02.83,2.36,1.46,3,2.52.86,1.43,1.17,3.19,1.89,5.3Z"/>
          <path class="cls-2" d="m285.84,312.07c1.05,2.38,1.78,4.99,3.24,7.08,2.46,3.54,4.31,3.44,7.11.19.37-.43.76-.84,1.12-1.24q7.68,4.95,12.62-7.19c1.21,2.55,2.62,4.31,2.88,6.23,1.59,12.04-4.2,20.61-13.53,26.33-.92.56-2.95.48-3.77-.17-8.06-6.39-14.66-13.71-13.01-25.09.33-2.26,1.61-4.38,2.45-6.57.3.14.6.29.9.43Z"/>
          <path class="cls-2" d="m297.76,255.49c-3.07-8.76-5.35-17.81-16.37-19.46.66-4.6,3.04-5.77,10.62-5.51,1.62-3.32,3.21-6.59,4.8-9.86l1.43-.24c1.26,2.42,2.8,4.73,3.69,7.28.8,2.29,1.39,3.45,4.28,2.81,3.95-.87,7.14,1.65,7.76,5.52-11.08,1.6-13.22,10.75-16.21,19.46Z"/>
          <path class="cls-2" d="m264.99,348.71c-.11.02-.89.11-1.65.27-2.62.55-2.96,1.75-1.24,3.83,2.15,2.61,1.1,5.57-2.17,6.54-3.96,1.17-7.83-.69-9.32-4.59-1.5-3.92-1.37-7.7,1.43-11.09,3.4-4.11,8.07-5.31,12.84-4.05,7.51,1.98,14.21,5.8,20.31,11.53-3.54-.52-6.57-1.17-9.62-1.31-1.3-.06-2.71.85-3.94,1.55-1.47.83-2.81,1.89-4.21,2.85-.71-1.63-1.43-3.26-2.42-5.53Z"/>
          <path class="cls-2" d="m203,297.41c-3.35-1.03-5.13.73-6.65,2.85-3.9,5.44-4.19,11.61-3.3,17.92.37,2.6,1.07,5.15.94,8.16-.86-1.19-1.91-2.29-2.54-3.6-3.77-7.8-5.05-15.81-1.46-24.05,2.72-6.24,9.62-10.21,16.3-9.33,3.71.49,5.79,3.07,7.2,6.3,1.41,3.23.77,6.43-1.62,8.61-1.3,1.18-4.17,1.69-5.83,1.1-1.52-.54-2.55-2.88-3.42-4.61-.38-.76.18-1.99.37-3.35Z"/>
          <path class="cls-2" d="m297.78,313.63c-1.4-2.48-2.32-4.03-3.15-5.63-1.27-2.45-3.14-3.37-5.72-2.2-2.97,1.34-5.42.7-7.41-1.76-2.32-2.87-4.02-6.03-3.04-9.87.55-2.18,3.19-3.12,5-1.78,1.26.94,2.09,2.44,3.29,3.49,1.37,1.19,2.93,2.16,4.41,3.21,1.18.83,2.62,1.44,3.51,2.5,1.14,1.36,1.85,3.09,3.08,5.24.8-1.54,1.16-2.79,1.96-3.62,1.44-1.5,3.12-2.77,4.75-4.08,1.43-1.15,3.19-2,4.32-3.38,1.69-2.05,3.07-4.99,6.16-3.74,3.07,1.25,2.5,4.38,1.82,7.01-1.5,5.77-5.18,7.96-10.94,6.53-2.28-.56-3.81.1-4.85,2.18-.86,1.71-1.82,3.38-3.18,5.9Z"/>
          <path class="cls-2" d="m220.13,312.23c-2.43-11.32,4.62-24.01,14.07-26.63,6.58-1.82,13.24.12,16.18,4.7,2.98,4.65,1.44,10.7-3.65,12.82-1.34.56-3.79.09-4.92-.86-1.91-1.62-3.18-3.91-1.79-6.79.57-1.19.51-2.68.74-4.03-1.54-.09-3.2-.6-4.59-.2-7.21,2.1-11.03,7.57-13.5,14.25-.83,2.25-1.7,4.48-2.55,6.72Z"/>
          <path class="cls-2" d="m292.95,281.04c.58-2.49.84-4.92,1.76-7.07.48-1.13,2.18-2.52,3.21-2.44,1.12.09,2.6,1.58,3.06,2.79.78,2.08.89,4.41,1.32,6.88,2.82-.9,5.59-2.96,8.28-.3-.03.42,0,.81-.08.84-4.57,1.51-6.11,5.17-7.31,9.44-.66,2.34-2.42,4.41-3.85,6.49-1.03,1.5-2.49,1.41-3.36-.09-1.65-2.86-3.49-5.74-4.42-8.86-.76-2.53-1.58-4.42-4.07-5.54-.84-.37-1.35-1.47-2.01-2.23,1.01-.43,2.05-1.27,3.02-1.19,1.54.12,3.03.85,4.45,1.29Z"/>
          <path class="cls-2" d="m185.13,349.45c-7.85,1.01-16.67-.31-21.33,8.41-.7,1.32-.62,3.06-.94,4.77,2.3-.31,4.18-1.16,5.29-.57,1.53.82,3.37,2.68,3.44,4.17.08,1.66-1.29,3.93-2.72,5-2.73,2.04-5.89,1.81-8.68-.35-3.28-2.54-4.85-5.83-4.09-10.03,1.45-8.02,7.51-13.33,16.4-13.75,4.23-.2,8.5.51,12.76.81-.04.51-.08,1.02-.12,1.53Z"/>
          <path class="cls-2" d="m296.45,264.9c-2.47-3.7-4.88-7.43-7.42-11.07-.98-1.41-2.15-2.72-3.4-3.91-1.91-1.82-3.66-2.06-5.41.48-1.68,2.44-5.78,2.83-7.96,1.05-2.06-1.68-2.21-5.05-.33-7.53,3.27-4.32,10.35-4.55,15.14-.13,1.89,1.74,3.36,4.1,4.53,6.43,1.75,3.5,3.13,7.19,4.55,10.85.44,1.14.54,2.42.8,3.63-.16.07-.33.13-.49.2Z"/>
          <path class="cls-2" d="m294.42,265.75c-4.76-1.45-8.73-2.82-12.79-3.86-3.36-.86-4.68.12-4.72,3.45-.03,2.66-.99,4.72-3.46,5.32-1.42.34-3.93-.08-4.57-1.06-1.19-1.81-2.2-4.45-1.8-6.45,1.08-5.35,7.94-8.68,13.93-6.93,5.31,1.55,9.31,5.18,13.4,9.53Z"/>
        </g>
        <g>
          <path class="cls-2" d="m57.33,392.63c3.37,1.04,6.3,1.66,8.95,2.89,1.43.66,3.22,2.28,3.38,3.63.39,3.39,2.43,4.36,5.13,5.51,3.48,1.48,4.65,4.89,4.37,8.4-.67,8.41-5.67,14.21-12.31,18.75-2.04,1.4-3.7.24-3.44-2.24.21-1.94.73-3.86,1.18-5.77,2.76-11.63-3.83-21.53-15.72-23.19-15.36-2.14-28.49,2.49-39.31,13.61-5.11,5.25-6.05,13.44-2.36,19.93,3.47,6.11,11.25,9.42,18.22,7.76,5.88-1.4,10.24-7.77,9.28-13.68-.58-3.53-2.78-5.78-6.08-6.95-3.72-1.33-7.09-.51-10.01,2.03-1.1.96-1.99,2.16-3.04,3.31-2.97-6.21,1.47-14.21,8.25-14.92,5.01-.53,9.6.37,13.22,4.51.92,1.06,2.98,1.51,4.53,1.57,5.67.19,8.15,1.56,9.5,5.73,1.04,3.2-.94,8.15-4.06,10.8-1.26,1.07-2.65,2.39-3.15,3.87-3.12,9.3-9.6,13.91-19.52,12.94-8.96-.87-15.57-5.49-19.42-13.77-3.8-8.18-4.63-16.34,1.2-23.92,2.14-2.79,4.89-5.3,7.81-7.25,7.88-5.27,15.79-10.55,24.08-15.12,12.17-6.72,9.49-17.62,2.53-24.62-.15-.16-.23-.39-.34-.59,4.07-1.74,10.12.64,14.66,5.75,3.54,3.99,2.82,9.9-1.96,19.05,3.33-1.82,7.16-3.09,9.89-5.57,7.01-6.37,9.62-14.7,7.83-23.95-.72-3.72-3.91-6.22-7.58-7.58-2.3-.85-3.28.74-4.31,2.44-.63,1.05-1.73,1.81-2.62,2.71-1.03-1.13-2.61-2.1-2.99-3.42-2.01-6.96,2.52-12.23,9.68-11.78,1.22.08,2.48-1.03,3.77-1.44,1.36-.44,2.78-.7,4.18-1.04.14,1.16.51,2.35.39,3.48-.34,3.15-.15,5.97,1.36,9.01,3.08,6.19,3.55,12.86,1.64,19.6-.3,1.05-.57,2.1-.85,3.15.28.15.55.3.83.46,1.88-2.53,3.84-5.01,5.63-7.61,4.96-7.16,8.19-15.07,8.99-23.74.45-4.86-.99-9.4-4.97-12.74-4.87-4.08-10.27-6.09-16.3-2.95-3.52,1.83-6.67,4.36-9.9,6.53-1.57-3.81.54-11.18,4.85-15.06,4.14-3.72,8.73-6.11,14.56-4.06.69.24,1.84.03,2.44-.42,4.31-3.23,8.77-3.04,12.78.47,4.51,3.96,5.99,9.19,6.47,14.86.15,1.78.02,3.59.02,5.38.38.25.76.5,1.14.75,4-2.98,8.14-5.79,11.96-8.98,3.86-3.22,7.4-6.81,11.22-10.37-.12,6.36-2.24,12.16-5.74,17.55-3.82,5.89-9.49,9.31-15.8,11.97-1.26.53-2.85,1.6-3.18,2.74-1.92,6.52-5.87,11.79-9.99,16.93-6.63,8.26-14.22,15.51-23.5,20.79-2.37,1.35-4.86,2.51-7.48,3.85Z"/>
          <path class="cls-2" d="m28.24,321.82c3.52-3.64,4.4-7.74,4.98-11.84.17-1.17-.66-2.67-1.43-3.73-1.38-1.88-2.89-2.16-4.26.25-.6,1.07-1.43,2.42-2.44,2.75-1.36.44-3.31.5-4.42-.2-.93-.59-1.52-2.56-1.38-3.82.49-4.28,4.11-7.94,7.68-8.26,4.99-.45,8.47,1.73,10.28,6.44.24.63.43,1.29.71,2.13,2.7-1.3,5.27-2.82,7.9,0,2.76,2.98,2.97,7.11-.21,10.64-2.44,2.71-5.36,4.99-8.11,7.42-.74.65-1.64,1.13-2.46,1.69.04.39.08.79.11,1.18,2,.05,4.01.17,6.01.14,1.6-.03,3.27-.58,4.78-.27.99.2,2.31,1.43,2.47,2.36.19,1.12-.37,2.92-1.23,3.52-1.33.92-3.32,1.72-4.82,1.45-9.23-1.69-15.94,2.48-22.51,8.3-5.07,4.48-11.05,7.92-16.57,11.9-2.31,1.67-4.34,1.67-6.59-.14-8-6.45-16.02-12.88-24.16-19.16-1.1-.85-2.89-1.12-4.36-1.12-4.23,0-8.47.57-12.67.3-2.51-.16-4.74-1.76-3.89-4.96.9-3.35,3.38-2.83,5.88-2.12,2.04.58,4.11,1.07,6.17,1.6.2-.33.4-.67.6-1-.93-1-1.84-2.02-2.8-2.99-2.75-2.79-5.78-5.35-8.22-8.39-2.83-3.53-2.56-7.45.07-10.07,2.68-2.66,5.18-2.49,9.47.64.16.11.43.07.72.11.35-1.77.44-3.64,1.08-5.29,1.8-4.63,5.77-6.21,10.48-4.4,3.62,1.39,6.75,7.6,5.26,10.95-.43.96-1.9,2.12-2.82,2.06-1.41-.1-2.84-1.05-4.11-1.87-1.28-.82-2.37-1.92-3.55-2.9-.92,1.96-2.56,3.91-2.6,5.9-.09,3.5.76,7.03,3.61,9.68.97-1.89,1.68-3.72,2.79-5.24.58-.8,2.19-1.72,2.79-1.44,1.09.51,2.11,1.76,2.54,2.93.41,1.1.24,2.55-.04,3.76-1.42,6.21-.36,11.95,4.2,16.38,4.69,4.57,9.9,8.62,15.04,12.7.73.58,2.82.57,3.48-.04,5.44-4.98,10.8-10.04,15.94-15.33,2.67-2.74,3.7-6.29,3.34-10.24-.21-2.29-.22-4.66.17-6.92.2-1.19,1.46-2.19,2.24-3.27,1.02.83,2.36,1.46,3,2.52.86,1.43,1.17,3.19,1.89,5.3Z"/>
          <path class="cls-2" d="m-11.79,312.07c1.05,2.38,1.78,4.99,3.24,7.08,2.46,3.54,4.31,3.44,7.11.19.37-.43.76-.84,1.12-1.24q7.68,4.95,12.62-7.19c1.21,2.55,2.62,4.31,2.88,6.23,1.59,12.04-4.2,20.61-13.53,26.33-.92.56-2.95.48-3.77-.17-8.06-6.39-14.66-13.71-13.01-25.09.33-2.26,1.61-4.38,2.45-6.57.3.14.6.29.9.43Z"/>
          <path class="cls-2" d="m.12,255.49c-3.07-8.76-5.35-17.81-16.37-19.46.66-4.6,3.04-5.77,10.62-5.51,1.62-3.32,3.21-6.59,4.8-9.86l1.43-.24c1.26,2.42,2.8,4.73,3.69,7.28.8,2.29,1.39,3.45,4.28,2.81,3.95-.87,7.14,1.65,7.76,5.52-11.08,1.6-13.22,10.75-16.21,19.46Z"/>
          <path class="cls-2" d="m31.68,347.73c.14,2.09.43,3.06.2,3.88-.25.92-.78,2.02-1.53,2.44-.55.31-2.08-.06-2.43-.61-3.59-5.55-8.44-3.84-13.26-2.49-.18.05-.43-.1-.64-.16,3.39-5.98,18.62-12.81,25.01-11.24,6.24,1.54,9.83,6.69,8.87,12.92-.52,3.38-2.42,5.76-5.76,6.69-2.55.71-5.25.84-6.85-1.73-.62-.99-.46-2.64-.26-3.93.19-1.19,1.62-2.96,1.29-3.31-.97-1.02-2.56-1.45-4.65-2.47Z"/>
          <path class="cls-2" d="m94.76,297.38c.12.93.2,1.6.29,2.27.45,3.48-1.35,5.87-4.74,6.32-3.09.4-5.57-1.5-6.13-4.71-1.47-8.43,4.79-13.89,13.05-11.38,6.71,2.04,10.67,6.52,11.96,13.42,1.55,8.24-.39,16.87-5.71,22.85.46-3.1.8-5.37,1.12-7.63.84-5.94.84-11.81-2.39-17.12-1.52-2.49-3.25-5.22-7.46-4Z"/>
          <path class="cls-2" d="m.14,313.63c-1.4-2.48-2.32-4.03-3.15-5.63-1.27-2.45-3.14-3.37-5.72-2.2-2.97,1.34-5.42.7-7.41-1.76-2.32-2.87-4.02-6.03-3.04-9.87.55-2.18,3.19-3.12,5-1.78,1.26.94,2.09,2.44,3.29,3.49,1.37,1.19,2.93,2.16,4.41,3.21,1.18.83,2.62,1.44,3.51,2.5,1.14,1.36,1.85,3.09,3.08,5.24.8-1.54,1.16-2.79,1.96-3.62,1.44-1.5,3.12-2.77,4.75-4.08,1.43-1.15,3.19-2,4.32-3.38,1.69-2.05,3.07-4.99,6.16-3.74,3.07,1.25,2.5,4.38,1.82,7.01-1.5,5.77-5.18,7.96-10.94,6.53-2.28-.56-3.81.1-4.85,2.18-.86,1.71-1.82,3.38-3.18,5.9Z"/>
          <path class="cls-2" d="m77.7,312.22c-1.56-3.77-3.03-7.58-4.7-11.31-2.44-5.47-6.96-8.5-12.56-9.98-1.07-.28-2.79-.01-3.44.7-.51.56-.09,2.32.38,3.34,1.39,3.01.65,6.37-2.17,8.16-2.81,1.78-4.84.09-6.65-1.81-2.52-2.63-3.48-5.76-2.04-9.24,1.75-4.23,5.13-6.47,9.61-6.9,10.25-.97,17.99,4.43,20.86,14.83,1.07,3.86,1.35,7.93,1.98,11.91-.43.1-.85.2-1.28.3Z"/>
          <path class="cls-2" d="m-4.69,281.04c.58-2.49.84-4.92,1.76-7.07.48-1.13,2.18-2.52,3.21-2.44,1.12.09,2.6,1.58,3.06,2.79.78,2.08.89,4.41,1.32,6.88,2.82-.9,5.59-2.96,8.28-.3-.03.42,0,.81-.08.84-4.57,1.51-6.11,5.17-7.31,9.44-.66,2.34-2.42,4.41-3.85,6.49-1.03,1.5-2.49,1.41-3.36-.09-1.65-2.86-3.49-5.74-4.42-8.86-.76-2.53-1.58-4.42-4.07-5.54-.84-.37-1.35-1.47-2.01-2.23,1.01-.43,2.05-1.27,3.02-1.19,1.54.12,3.03.85,4.45,1.29Z"/>
          <path class="cls-2" d="m135.04,362.8c-.45-2.03-.45-3.88-1.23-5.28-3.58-6.43-9.99-7.17-16.4-7.73-1.57-.14-3.16-.02-4.74-.02-.29-.44-.59-.89-.88-1.33.56-.13,1.12-.25,1.69-.38,7.51-1.71,14.86-2.01,21.7,2.4,4.84,3.12,6.79,7.78,6.54,13.3-.3,6.43-7.45,10.67-12.68,7.75-2.8-1.56-3.92-4.12-2.7-6.62,1.37-2.81,3.46-3.94,6.5-2.32.36.19.87.11,2.22.24Z"/>
          <path class="cls-2" d="m.5,264.68c1.4-3.93,2.54-7.98,4.3-11.74,1.49-3.19,3.3-6.44,5.7-8.96,3.92-4.09,10.57-4.4,14.28-1.34,2.45,2.03,3.16,5.21,1.57,7.76-1.48,2.36-3.67,3.11-6.28,2.08-.8-.31-1.52-1-2.1-1.67-2.65-3.03-4.4-3.15-6.86.14-3.03,4.05-5.75,8.34-8.6,12.53-.36.53-.73,1.05-1.09,1.58-.31-.13-.62-.26-.92-.39Z"/>
          <path class="cls-2" d="m3.95,265.71c6.86-8.9,15.75-12.43,23.04-7.75,4.49,2.88,5.76,8.16,2.26,11.36-1.14,1.04-3.51,1.83-4.77,1.34-1.5-.59-3.14-2.54-3.45-4.14-1-5.15-1.06-5.54-6.14-4.33-3.65.87-7.18,2.29-10.93,3.52Z"/>
        </g>
        <g>
          <path class="cls-2" d="m206.14,217.34c3.37,1.04,6.3,1.66,8.95,2.89,1.43.66,3.22,2.28,3.38,3.63.39,3.39,2.43,4.36,5.13,5.51,3.48,1.48,4.65,4.89,4.37,8.4-.67,8.41-5.67,14.21-12.31,18.75-2.04,1.4-3.7.24-3.44-2.24.21-1.94.73-3.86,1.18-5.77,2.76-11.63-3.83-21.53-15.72-23.19-15.36-2.14-28.49,2.49-39.31,13.61-5.11,5.25-6.05,13.44-2.36,19.93,3.47,6.11,11.25,9.42,18.22,7.76,5.88-1.4,10.24-7.77,9.28-13.68-.58-3.53-2.78-5.78-6.08-6.95-3.72-1.33-7.09-.51-10.01,2.03-1.1.96-1.99,2.16-3.04,3.31-2.97-6.21,1.47-14.21,8.25-14.92,5.01-.53,9.6.37,13.22,4.51.92,1.06,2.98,1.51,4.53,1.57,5.67.19,8.15,1.56,9.5,5.73,1.04,3.2-.94,8.15-4.06,10.8-1.26,1.07-2.65,2.39-3.15,3.87-3.12,9.3-9.6,13.91-19.52,12.94-8.96-.87-15.57-5.49-19.42-13.77-3.8-8.18-4.63-16.34,1.2-23.92,2.14-2.79,4.89-5.3,7.81-7.25,7.88-5.27,15.79-10.55,24.08-15.12,12.17-6.72,9.49-17.62,2.53-24.62-.15-.16-.23-.39-.34-.59,4.07-1.74,10.12.64,14.66,5.75,3.54,3.99,2.82,9.9-1.96,19.05,3.33-1.82,7.16-3.09,9.89-5.57,7.01-6.37,9.62-14.7,7.83-23.95-.72-3.72-3.91-6.22-7.58-7.58-2.3-.85-3.28.74-4.31,2.44-.63,1.05-1.73,1.81-2.62,2.71-1.03-1.13-2.61-2.1-2.99-3.42-2.01-6.96,2.52-12.23,9.68-11.78,1.22.08,2.48-1.03,3.77-1.44,1.36-.44,2.78-.7,4.18-1.04.14,1.16.51,2.35.39,3.48-.34,3.15-.15,5.97,1.36,9.01,3.08,6.19,3.55,12.86,1.64,19.6-.3,1.05-.57,2.1-.85,3.15.28.15.55.3.83.46,1.88-2.53,3.84-5.01,5.63-7.61,4.96-7.16,8.19-15.07,8.99-23.74.45-4.86-.99-9.4-4.97-12.74-4.87-4.08-10.27-6.09-16.3-2.95-3.52,1.83-6.67,4.36-9.9,6.53-1.57-3.81.54-11.18,4.85-15.06,4.14-3.72,8.73-6.11,14.56-4.06.69.24,1.84.03,2.44-.42,4.31-3.23,8.77-3.04,12.78.47,4.51,3.96,5.99,9.19,6.47,14.86.15,1.78.02,3.59.02,5.38.38.25.76.5,1.14.75,4-2.98,8.14-5.79,11.96-8.98,3.86-3.22,7.4-6.81,11.22-10.37-.12,6.36-2.24,12.16-5.74,17.55-3.82,5.89-9.49,9.31-15.8,11.97-1.26.53-2.85,1.6-3.18,2.74-1.92,6.52-5.87,11.79-9.99,16.93-6.63,8.26-14.22,15.51-23.5,20.79-2.37,1.35-4.86,2.51-7.48,3.85Z"/>
          <path class="cls-2" d="m95.87,214.28c-3.71-6.35-6.65-12.72-.7-19.06,3.59-3.82,7.99-5.93,14.15-5.22-4.2,4.25-6.46,8.46-6.47,13.96,0,4.21,1.51,7.16,4.84,9.32,7.46,4.85,15.08,9.46,22.43,14.46,4.27,2.9,8.78,5.82,12.09,9.66,9.39,10.88,3.35,26.72-4.72,33.23-5.7,4.6-12.4,6.57-19.87,4.64-5.8-1.5-9.75-4.77-11.88-10.54-.86-2.33-3.07-4.14-4.33-6.37-1.48-2.63-3.45-5.39-3.69-8.23-.4-4.58,3.16-7.56,8.07-7.53,3.11.02,5.57-.25,7.79-3.12,2.87-3.72,11.02-4.27,15.15-1.75,5.06,3.09,6.68,7.43,4.85,13.56-.56-.47-1.11-.81-1.5-1.28-3.25-3.95-7.19-5.48-11.22-4.23-3.6,1.12-6.05,3.4-6.68,7.22-.7,4.3,1.91,9.62,5.69,11.9,5.93,3.57,14.39,2.36,19.48-2.77,5.13-5.17,6.27-14.02,2.27-20.23-5.8-9.02-14.86-13.32-24.77-15.89-7.12-1.85-14.38-1.99-21.46.69-9.37,3.55-13.68,12.14-10.99,21.78.56,1.99,1.02,4.06,1.11,6.12.1,2.29-1.65,3.3-3.42,1.96-5.5-4.18-10.31-8.93-11.93-16.06-1.37-6.03.52-9.74,6.2-12.12.85-.36,2.05-1.14,2.15-1.86.82-5.95,5.11-7.46,10.06-8.28.64-.11,1.26-.32,2.82-.73-4.03-2.33-7.47-4.08-10.66-6.21-12.05-8.02-21.92-18.31-28.15-31.32-2.22-4.63-4.86-7.01-9.16-8.97-10.67-4.84-15.57-13.98-17.48-25.05-.14-.84.06-1.74.13-3.16,7.12,7.81,14.11,14.94,23.6,19.85.43-3.6.27-7.03,1.33-10.04,1.31-3.7,3.12-7.48,5.63-10.44,3.63-4.27,8.29-4.13,12.84-.72.54.4,1.46.59,2.13.47,11.38-1.96,20.25,5.48,20.26,17.05,0,.91,0,1.83,0,3.56-1.63-1.72-2.69-2.95-3.87-4.07-4.55-4.31-9.99-6.94-16.11-5.01-6.73,2.12-11.71,7.08-11.64,14.4.05,5.37,2.05,10.8,3.65,16.06,2.06,6.73,6.71,11.93,11.4,17.15-.5-3.2-1.63-6.45-1.36-9.59.41-4.75,1.84-9.41,2.73-14.13.48-2.54.76-5.13,1.12-7.69.19-1.34.38-2.68.56-4.02,1.52.41,3.69.34,4.4,1.33,1.37,1.9,2.62,1.29,4.37,1.25,1.98-.04,4.31.61,5.91,1.76,3.04,2.19,3.97,8.21,2.06,11.46-.51.87-1.65,1.7-2.61,1.84-.61.08-1.66-1.01-2.08-1.81-2.14-4.03-4.27-4.39-7.86-1.55-5.93,4.7-5.27,11.01-4.05,17.18,1.66,8.41,9.18,15.66,17.33,17.19Z"/>
          <path class="cls-2" d="m177.06,146.53c3.52-3.64,4.4-7.74,4.98-11.84.17-1.17-.66-2.67-1.43-3.73-1.38-1.88-2.89-2.16-4.26.25-.6,1.07-1.43,2.42-2.44,2.75-1.36.44-3.31.5-4.42-.2-.93-.59-1.52-2.56-1.38-3.82.49-4.28,4.11-7.94,7.68-8.26,4.99-.45,8.47,1.73,10.28,6.44.24.63.43,1.29.71,2.13,2.7-1.3,5.27-2.82,7.9,0,2.76,2.98,2.97,7.11-.21,10.64-2.44,2.71-5.36,4.99-8.11,7.42-.74.65-1.64,1.13-2.46,1.69.04.39.08.79.11,1.18,2,.05,4.01.17,6.01.14,1.6-.03,3.27-.58,4.78-.27.99.2,2.31,1.43,2.47,2.36.19,1.12-.37,2.92-1.23,3.52-1.33.92-3.32,1.72-4.82,1.45-9.23-1.69-15.94,2.48-22.51,8.3-5.07,4.48-11.05,7.92-16.57,11.9-2.31,1.67-4.34,1.67-6.59-.14-8-6.45-16.02-12.88-24.16-19.16-1.1-.85-2.89-1.12-4.36-1.12-4.23,0-8.47.57-12.67.3-2.51-.16-4.74-1.76-3.89-4.96.9-3.35,3.38-2.83,5.88-2.12,2.04.58,4.11,1.07,6.17,1.6.2-.33.4-.67.6-1-.93-1-1.84-2.02-2.8-2.99-2.75-2.79-5.78-5.35-8.22-8.39-2.83-3.53-2.56-7.45.07-10.07,2.68-2.66,5.18-2.49,9.47.64.16.11.43.07.72.11.35-1.77.44-3.64,1.08-5.29,1.8-4.63,5.77-6.21,10.48-4.4,3.62,1.39,6.75,7.6,5.26,10.95-.43.96-1.9,2.12-2.82,2.06-1.41-.1-2.84-1.05-4.11-1.87-1.28-.82-2.37-1.92-3.55-2.9-.92,1.96-2.56,3.91-2.6,5.9-.09,3.5.76,7.03,3.61,9.68.97-1.89,1.68-3.72,2.79-5.24.58-.8,2.19-1.72,2.79-1.44,1.09.51,2.11,1.76,2.54,2.93.41,1.1.24,2.55-.04,3.76-1.42,6.21-.36,11.95,4.2,16.38,4.69,4.57,9.9,8.62,15.04,12.7.73.58,2.82.57,3.48-.04,5.44-4.98,10.8-10.04,15.94-15.33,2.67-2.74,3.7-6.29,3.34-10.24-.21-2.29-.22-4.66.17-6.92.2-1.19,1.46-2.19,2.24-3.27,1.02.83,2.36,1.46,3,2.52.86,1.43,1.17,3.19,1.89,5.3Z"/>
          <path class="cls-2" d="m137.02,136.78c1.05,2.38,1.78,4.99,3.24,7.08,2.46,3.54,4.31,3.44,7.11.19.37-.43.76-.84,1.12-1.24q7.68,4.95,12.62-7.19c1.21,2.55,2.62,4.31,2.88,6.23,1.59,12.04-4.2,20.61-13.53,26.33-.92.56-2.95.48-3.77-.17-8.06-6.39-14.66-13.71-13.01-25.09.33-2.26,1.61-4.38,2.45-6.57.3.14.6.29.9.43Z"/>
          <path class="cls-2" d="m174.16,190.36c-.14.66-.07,1.51-.46,1.95-.9,1.03-2.02,1.86-3.06,2.77-.5-1.24-1.14-2.45-1.47-3.74-.33-1.29-.36-2.67-.52-4.01-.37,0-.74,0-1.11,0-.44.89-.71,1.91-1.34,2.63-1.29,1.47-2.54,1.56-3.32-.57q-1.88-5.14-7.37-4.55c-1.69.19-3.38.4-5.49-.16,2.32-1.47,4.5-3.31,7-4.34,9.3-3.84,21.65-1.74,27.54,8.01,4.29,7.1,2.72,18.18-8.56,19.78-3.24.46-6.49-.08-8.33-2.95-.97-1.52-1.47-4.27-.72-5.68.75-1.41,3.29-1.94,5.13-2.66,1.34-.53,3.88-.51,4.02-1.14.36-1.73-.25-3.66-.48-5.51-.48.06-.97.12-1.45.17Z"/>
          <path class="cls-2" d="m148.03,185.7c-2.65-.51-4.54-.92-6.44-1.22-3.61-.57-5.69.75-6.64,3.85-.29.96-1.11,1.76-1.69,2.63-.76-.77-1.54-1.53-2.25-2.34-.29-.33-.43-.79-1.24-2.33-.68,1.92-1.37,2.99-1.36,4.06.01,1.77,1.19,4.1-1.35,4.66-2.74.6-2.87-1.96-3.27-3.87-.05-.21-.2-.4-.38-.77-2.25.91-2.68,2.71-2.16,4.74.55,2.13,2.14,2.44,4.1,1.91,2.68-.72,4.66.61,5.72,2.8,1.09,2.26.41,4.45-1.58,6.21-5.04,4.48-15.22,1.85-17.38-4.73-2.24-6.81-.48-12.63,4.83-17.55,7.93-7.34,23.92-6.79,31.09,1.94Z"/>
          <path class="cls-2" d="m133,279.84c.8,1.27,1.39,2.77,2.44,3.78,3.37,3.21,7.05,2.73,9.07-1.39,1.19-2.42,1.67-5.22,2.22-7.9.56-2.76.81-5.58,1.19-8.38.52-.04,1.04-.09,1.55-.13.48,2.19,1.01,4.37,1.44,6.57.56,2.82.7,5.77,1.63,8.46,1.84,5.29,6.23,6.19,10.23,2.37.9-.86,1.8-1.71,2.84-2.69.69,5.52-3.96,10.26-12.02,11.91,2.08,1.37,3.67,2.42,6.02,3.96-1.82.96-3.17,2.18-4.62,2.31-2.19.2-3.28.78-3.67,3.1-.22,1.3-1.46,2.44-2.23,3.64-.87-1.23-2.05-2.35-2.52-3.71-.63-1.83-1.21-2.96-3.48-3.02-1.25-.03-2.47-1.28-3.71-1.97.89-.89,1.77-1.78,2.68-2.65.48-.46.99-.88,1.93-1.7-7.06-1.01-11.09-4.74-12.44-11.16.49-.47.97-.94,1.46-1.4Z"/>
          <path class="cls-2" d="m148.94,80.2c-3.07-8.76-5.35-17.81-16.37-19.46.66-4.6,3.04-5.77,10.62-5.51,1.62-3.32,3.21-6.59,4.8-9.86l1.43-.24c1.26,2.42,2.8,4.73,3.69,7.28.8,2.29,1.39,3.45,4.28,2.81,3.95-.87,7.14,1.65,7.76,5.52-11.08,1.6-13.22,10.75-16.21,19.46Z"/>
          <path class="cls-2" d="m116.17,173.42c-.11.02-.89.11-1.65.27-2.62.55-2.96,1.75-1.24,3.83,2.15,2.61,1.1,5.57-2.17,6.54-3.96,1.17-7.83-.69-9.32-4.59-1.5-3.92-1.37-7.7,1.43-11.09,3.4-4.11,8.07-5.31,12.84-4.05,7.51,1.98,14.21,5.8,20.31,11.53-3.54-.52-6.57-1.17-9.62-1.31-1.3-.06-2.71.85-3.94,1.55-1.47.83-2.81,1.89-4.21,2.85-.71-1.63-1.43-3.26-2.42-5.53Z"/>
          <path class="cls-2" d="m180.5,172.44c.14,2.09.43,3.06.2,3.88-.25.92-.78,2.02-1.53,2.44-.55.31-2.08-.06-2.43-.61-3.59-5.55-8.44-3.84-13.26-2.49-.18.05-.43-.1-.64-.16,3.39-5.98,18.62-12.81,25.01-11.24,6.24,1.54,9.83,6.69,8.87,12.92-.52,3.38-2.42,5.76-5.76,6.69-2.55.71-5.25.84-6.85-1.73-.62-.99-.46-2.64-.26-3.93.19-1.19,1.62-2.96,1.29-3.31-.97-1.02-2.56-1.45-4.65-2.47Z"/>
          <path class="cls-2" d="m54.18,122.12c-3.35-1.03-5.13.73-6.65,2.85-3.9,5.44-4.19,11.61-3.3,17.92.37,2.6,1.07,5.15.94,8.16-.86-1.19-1.91-2.29-2.54-3.6-3.77-7.8-5.05-15.81-1.46-24.05,2.72-6.24,9.62-10.21,16.3-9.33,3.71.49,5.79,3.07,7.2,6.3,1.41,3.23.77,6.43-1.62,8.61-1.3,1.18-4.17,1.69-5.83,1.1-1.52-.54-2.55-2.88-3.42-4.61-.38-.76.18-1.99.37-3.35Z"/>
          <path class="cls-2" d="m243.58,122.09c.12.93.2,1.6.29,2.27.45,3.48-1.35,5.87-4.74,6.32-3.09.4-5.57-1.5-6.13-4.71-1.47-8.43,4.79-13.89,13.05-11.38,6.71,2.04,10.67,6.52,11.96,13.42,1.55,8.24-.39,16.87-5.71,22.85.46-3.1.8-5.37,1.12-7.63.84-5.94.84-11.81-2.39-17.12-1.52-2.49-3.25-5.22-7.46-4Z"/>
          <path class="cls-2" d="m148.96,138.34c-1.4-2.48-2.32-4.03-3.15-5.63-1.27-2.45-3.14-3.37-5.72-2.2-2.97,1.34-5.42.7-7.41-1.76-2.32-2.87-4.02-6.03-3.04-9.87.55-2.18,3.19-3.12,5-1.78,1.26.94,2.09,2.44,3.29,3.49,1.37,1.19,2.93,2.16,4.41,3.21,1.18.83,2.62,1.44,3.51,2.5,1.14,1.36,1.85,3.09,3.08,5.24.8-1.54,1.16-2.79,1.96-3.62,1.44-1.5,3.12-2.77,4.75-4.08,1.43-1.15,3.19-2,4.32-3.38,1.69-2.05,3.07-4.99,6.16-3.74,3.07,1.25,2.5,4.38,1.82,7.01-1.5,5.77-5.18,7.96-10.94,6.53-2.28-.56-3.81.1-4.85,2.18-.86,1.71-1.82,3.38-3.18,5.9Z"/>
          <path class="cls-2" d="m71.31,136.94c-2.43-11.32,4.62-24.01,14.07-26.63,6.58-1.82,13.24.12,16.18,4.7,2.98,4.65,1.44,10.7-3.65,12.82-1.34.56-3.79.09-4.92-.86-1.91-1.62-3.18-3.91-1.79-6.79.57-1.19.51-2.68.74-4.03-1.54-.09-3.2-.6-4.59-.2-7.21,2.1-11.03,7.57-13.5,14.25-.83,2.25-1.7,4.48-2.55,6.72Z"/>
          <path class="cls-2" d="m226.52,136.93c-1.56-3.77-3.03-7.58-4.7-11.31-2.44-5.47-6.96-8.5-12.56-9.98-1.07-.28-2.79-.01-3.44.7-.51.56-.09,2.32.38,3.34,1.39,3.01.65,6.37-2.17,8.16-2.81,1.78-4.84.09-6.65-1.81-2.52-2.63-3.48-5.76-2.04-9.24,1.75-4.23,5.13-6.47,9.61-6.9,10.25-.97,17.99,4.43,20.86,14.83,1.07,3.86,1.35,7.93,1.98,11.91-.43.1-.85.2-1.28.3Z"/>
          <path class="cls-2" d="m144.13,105.75c.58-2.49.84-4.92,1.76-7.07.48-1.13,2.18-2.52,3.21-2.44,1.12.09,2.6,1.58,3.06,2.79.78,2.08.89,4.41,1.32,6.88,2.82-.9,5.59-2.96,8.28-.3-.03.42,0,.81-.08.84-4.57,1.51-6.11,5.17-7.31,9.44-.66,2.34-2.42,4.41-3.85,6.49-1.03,1.5-2.49,1.41-3.36-.09-1.65-2.86-3.49-5.74-4.42-8.86-.76-2.53-1.58-4.42-4.07-5.54-.84-.37-1.35-1.47-2.01-2.23,1.01-.43,2.05-1.27,3.02-1.19,1.54.12,3.03.85,4.45,1.29Z"/>
          <path class="cls-2" d="m165.58,219.15c-.88-.82-1.77-1.64-2.64-2.48-4.26-4.09-8.06-3.46-10.12,1.98-1,2.65-1.3,5.57-1.88,8.37-.47,2.26-.89,4.54-1.33,6.8-.53-.01-1.06-.03-1.59-.04-.41-2.61-.7-5.26-1.28-7.83-.67-3-1.24-6.11-2.52-8.86-1.62-3.48-5.46-3.91-8.47-1.35-1.21,1.03-2.32,2.19-3.58,3.39-.57-3.33,1.99-7.7,5.55-9.9,3.1-1.92,6.16-1.93,9.02.36,1.26,1.01,2.06,1.75,3.81.5,5.16-3.69,11.1-1.98,14.08,3.88.75,1.47,1.13,3.13,1.67,4.7-.24.15-.48.31-.72.46Z"/>
          <path class="cls-2" d="m283.86,187.51c-.45-2.03-.45-3.88-1.23-5.28-3.58-6.43-9.99-7.17-16.4-7.73-1.57-.14-3.16-.02-4.74-.02-.29-.44-.59-.89-.88-1.33.56-.13,1.12-.25,1.69-.38,7.51-1.71,14.86-2.01,21.7,2.4,4.84,3.12,6.79,7.78,6.54,13.3-.3,6.43-7.45,10.67-12.68,7.75-2.8-1.56-3.92-4.12-2.7-6.62,1.37-2.81,3.46-3.94,6.5-2.32.36.19.87.11,2.22.24Z"/>
          <path class="cls-2" d="m36.31,174.16c-7.85,1.01-16.67-.31-21.33,8.41-.7,1.32-.62,3.06-.94,4.77,2.3-.31,4.18-1.16,5.29-.57,1.53.82,3.37,2.68,3.44,4.17.08,1.66-1.29,3.93-2.72,5-2.73,2.04-5.89,1.81-8.68-.35-3.28-2.54-4.85-5.83-4.09-10.03,1.45-8.02,7.51-13.33,16.4-13.75,4.23-.2,8.5.51,12.76.81-.04.51-.08,1.02-.12,1.53Z"/>
          <path class="cls-2" d="m149.32,89.39c1.4-3.93,2.54-7.98,4.3-11.74,1.49-3.19,3.3-6.44,5.7-8.96,3.92-4.09,10.57-4.4,14.28-1.34,2.45,2.03,3.16,5.21,1.57,7.76-1.48,2.36-3.67,3.11-6.28,2.08-.8-.31-1.52-1-2.1-1.67-2.65-3.03-4.4-3.15-6.86.14-3.03,4.05-5.75,8.34-8.6,12.53-.36.53-.73,1.05-1.09,1.58-.31-.13-.62-.26-.92-.39Z"/>
          <path class="cls-2" d="m147.63,89.61c-2.47-3.7-4.88-7.43-7.42-11.07-.98-1.41-2.15-2.72-3.4-3.91-1.91-1.82-3.66-2.06-5.41.48-1.68,2.44-5.78,2.83-7.96,1.05-2.06-1.68-2.21-5.05-.33-7.53,3.27-4.32,10.35-4.55,15.14-.13,1.89,1.74,3.36,4.1,4.53,6.43,1.75,3.5,3.13,7.19,4.55,10.85.44,1.14.54,2.42.8,3.63-.16.07-.33.13-.49.2Z"/>
          <path class="cls-2" d="m152.77,90.42c6.86-8.9,15.75-12.43,23.04-7.75,4.49,2.88,5.76,8.16,2.26,11.36-1.14,1.04-3.51,1.83-4.77,1.34-1.5-.59-3.14-2.54-3.45-4.14-1-5.15-1.06-5.54-6.14-4.33-3.65.87-7.18,2.29-10.93,3.52Z"/>
          <path class="cls-2" d="m145.6,90.46c-4.76-1.45-8.73-2.82-12.79-3.86-3.36-.86-4.68.12-4.72,3.45-.03,2.66-.99,4.72-3.46,5.32-1.42.34-3.93-.08-4.57-1.06-1.19-1.81-2.2-4.45-1.8-6.45,1.08-5.35,7.94-8.68,13.93-6.93,5.31,1.55,9.31,5.18,13.4,9.53Z"/>
          <path class="cls-2" d="m149.88,188.1c7.53-2.35,13.04,5.31,12.01,10.74-.36,1.92-2.18,3.89-3.87,5.1-.81.59-3.35-.03-4.22-.95-1.67-1.75-1.58-3.97-.44-6.39.62-1.32.2-3.42-.37-4.93-.48-1.27-1.87-2.2-3.11-3.57Z"/>
          <path class="cls-2" d="m147.94,188.01c-1.26,1.42-2.15,2.33-2.92,3.32-1.44,1.83-2.2,3.56-.54,5.91,1.52,2.14.49,5.67-1.46,6.71-2.26,1.21-5.22-.06-6.54-2.83-1.78-3.74-.49-6.98,1.77-10,2.31-3.08,5.42-3.97,9.69-3.12Z"/>
          <path class="cls-2" d="m158.75,217.78c1.69,1.69,4.4,3.2,4.71,5.11.23,1.38-2.47,4.01-4.36,4.67-.97.34-3.54-2.12-4.43-3.82-.82-1.56,2.14-5.42,4.08-5.96Z"/>
          <path class="cls-2" d="m138.12,229.17c-1.61-2.56-3.94-4.8-3.5-5.91.8-1.99,3.28-3.3,5.06-4.89,1.17,1.77,3.37,3.63,3.23,5.28-.14,1.67-2.6,3.15-4.79,5.52Z"/>
        </g>
        <g>
          <path class="cls-2" d="m244.69,38.99c-3.71-6.35-6.65-12.72-.7-19.06,3.59-3.82,7.99-5.93,14.15-5.22-4.2,4.25-6.46,8.46-6.47,13.96,0,4.21,1.51,7.16,4.84,9.32,7.46,4.85,15.08,9.46,22.43,14.46,4.27,2.9,8.78,5.82,12.09,9.66,9.39,10.88,3.35,26.72-4.72,33.23-5.7,4.6-12.4,6.57-19.87,4.64-5.8-1.5-9.75-4.77-11.88-10.54-.86-2.33-3.07-4.14-4.33-6.37-1.48-2.63-3.45-5.39-3.69-8.23-.4-4.58,3.16-7.56,8.07-7.53,3.11.02,5.57-.25,7.79-3.12,2.87-3.72,11.02-4.27,15.15-1.75,5.06,3.09,6.68,7.43,4.85,13.56-.56-.47-1.11-.81-1.5-1.28-3.25-3.95-7.19-5.48-11.22-4.23-3.6,1.12-6.05,3.4-6.68,7.22-.7,4.3,1.91,9.62,5.69,11.9,5.93,3.57,14.39,2.36,19.48-2.77,5.13-5.17,6.27-14.02,2.27-20.23-5.8-9.02-14.86-13.32-24.77-15.89-7.12-1.85-14.38-1.99-21.46.69-9.37,3.55-13.68,12.14-10.99,21.78.56,1.99,1.02,4.06,1.11,6.12.1,2.29-1.65,3.3-3.42,1.96-5.5-4.18-10.31-8.93-11.93-16.06-1.37-6.03.52-9.74,6.2-12.12.85-.36,2.05-1.14,2.15-1.86.82-5.95,5.11-7.46,10.06-8.28.64-.11,1.26-.32,2.82-.73-4.03-2.33-7.47-4.08-10.66-6.21-12.05-8.02-21.92-18.31-28.15-31.32-2.22-4.63-4.86-7.01-9.16-8.97-10.67-4.84-15.57-13.98-17.48-25.05-.14-.84.06-1.74.13-3.16,7.12,7.81,14.11,14.94,23.6,19.85.43-3.6.27-7.03,1.33-10.04,1.31-3.7,3.12-7.48,5.63-10.44,3.63-4.27,8.29-4.13,12.84-.72.54.4,1.46.59,2.13.47,11.38-1.96,20.25,5.48,20.26,17.05,0,.91,0,1.83,0,3.56-1.63-1.72-2.69-2.95-3.87-4.07-4.55-4.31-9.99-6.94-16.11-5.01-6.73,2.12-11.71,7.08-11.64,14.4.05,5.37,2.05,10.8,3.65,16.06,2.06,6.73,6.71,11.93,11.4,17.15-.5-3.2-1.63-6.45-1.36-9.59.41-4.75,1.84-9.41,2.73-14.13.48-2.54.76-5.13,1.12-7.69.19-1.34.38-2.68.56-4.02,1.52.41,3.69.34,4.4,1.33,1.37,1.9,2.62,1.29,4.37,1.25,1.98-.04,4.31.61,5.91,1.76,3.04,2.19,3.97,8.21,2.06,11.46-.51.87-1.65,1.7-2.61,1.84-.61.08-1.66-1.01-2.08-1.81-2.14-4.03-4.27-4.39-7.86-1.55-5.93,4.7-5.27,11.01-4.05,17.18,1.66,8.41,9.18,15.66,17.33,17.19Z"/>
          <path class="cls-2" d="m325.88-28.76c3.52-3.64,4.4-7.74,4.98-11.84.17-1.17-.66-2.67-1.43-3.73-1.38-1.88-2.89-2.16-4.26.25-.6,1.07-1.43,2.42-2.44,2.75-1.36.44-3.31.5-4.42-.2-.93-.59-1.52-2.56-1.38-3.82.49-4.28,4.11-7.94,7.68-8.26,4.99-.45,8.47,1.73,10.28,6.44.24.63.43,1.29.71,2.13,2.7-1.3,5.27-2.82,7.9,0,2.76,2.98,2.97,7.11-.21,10.64-2.44,2.71-5.36,4.99-8.11,7.42-.74.65-1.64,1.13-2.46,1.69.04.39.08.79.11,1.18,2,.05,4.01.17,6.01.14,1.6-.03,3.27-.58,4.78-.27.99.2,2.31,1.43,2.47,2.36.19,1.12-.37,2.92-1.23,3.52-1.33.92-3.32,1.72-4.82,1.45-9.23-1.69-15.94,2.48-22.51,8.3-5.07,4.48-11.05,7.92-16.57,11.9-2.31,1.67-4.34,1.67-6.59-.14-8-6.45-16.02-12.88-24.16-19.16-1.1-.85-2.89-1.12-4.36-1.12-4.23,0-8.47.57-12.67.3-2.51-.16-4.74-1.76-3.89-4.96.9-3.35,3.38-2.83,5.88-2.12,2.04.58,4.11,1.07,6.17,1.6.2-.33.4-.67.6-1-.93-1-1.84-2.02-2.8-2.99-2.75-2.79-5.78-5.35-8.22-8.39-2.83-3.53-2.56-7.45.07-10.07,2.68-2.66,5.18-2.49,9.47.64.16.11.43.07.72.11.35-1.77.44-3.64,1.08-5.29,1.8-4.63,5.77-6.21,10.48-4.4,3.62,1.39,6.75,7.6,5.26,10.95-.43.96-1.9,2.12-2.82,2.06-1.41-.1-2.84-1.05-4.11-1.87-1.28-.82-2.37-1.92-3.55-2.9-.92,1.96-2.56,3.91-2.6,5.9-.09,3.5.76,7.03,3.61,9.68.97-1.89,1.68-3.72,2.79-5.24.58-.8,2.19-1.72,2.79-1.44,1.09.51,2.11,1.76,2.54,2.93.41,1.1.24,2.55-.04,3.76-1.42,6.21-.36,11.95,4.2,16.38,4.69,4.57,9.9,8.62,15.04,12.7.73.58,2.82.57,3.48-.04,5.44-4.98,10.8-10.04,15.94-15.33,2.67-2.74,3.7-6.29,3.34-10.24-.21-2.29-.22-4.66.17-6.92.2-1.19,1.46-2.19,2.24-3.27,1.02.83,2.36,1.46,3,2.52.86,1.43,1.17,3.19,1.89,5.3Z"/>
          <path class="cls-2" d="m296.85,10.41c-2.65-.51-4.54-.92-6.44-1.22-3.61-.57-5.69.75-6.64,3.85-.29.96-1.11,1.76-1.69,2.63-.76-.77-1.54-1.53-2.25-2.34-.29-.33-.43-.79-1.24-2.33-.68,1.92-1.37,2.99-1.36,4.06.01,1.77,1.19,4.1-1.35,4.66-2.74.6-2.87-1.96-3.27-3.87-.05-.21-.2-.4-.38-.77-2.25.91-2.68,2.71-2.16,4.74.55,2.13,2.14,2.44,4.1,1.91,2.68-.72,4.66.61,5.72,2.8,1.09,2.26.41,4.45-1.58,6.21-5.04,4.48-15.22,1.85-17.38-4.73-2.24-6.81-.48-12.63,4.83-17.55,7.93-7.34,23.92-6.79,31.09,1.94Z"/>
          <path class="cls-2" d="m281.82,104.55c.8,1.27,1.39,2.77,2.44,3.78,3.37,3.21,7.05,2.73,9.07-1.39,1.19-2.42,1.67-5.22,2.22-7.9.56-2.76.81-5.58,1.19-8.38.52-.04,1.04-.09,1.55-.13.48,2.19,1.01,4.37,1.44,6.57.56,2.82.7,5.77,1.63,8.46,1.84,5.29,6.23,6.19,10.23,2.37.9-.86,1.8-1.71,2.84-2.69.69,5.52-3.96,10.26-12.02,11.91,2.08,1.37,3.67,2.42,6.02,3.96-1.82.96-3.17,2.18-4.62,2.31-2.19.2-3.28.78-3.67,3.1-.22,1.3-1.46,2.44-2.23,3.64-.87-1.23-2.05-2.35-2.52-3.71-.63-1.83-1.21-2.96-3.48-3.02-1.25-.03-2.47-1.28-3.71-1.97.89-.89,1.77-1.78,2.68-2.65.48-.46.99-.88,1.93-1.7-7.06-1.01-11.09-4.74-12.44-11.16.49-.47.97-.94,1.46-1.4Z"/>
          <path class="cls-2" d="m264.99-1.87c-.11.02-.89.11-1.65.27-2.62.55-2.96,1.75-1.24,3.83,2.15,2.61,1.1,5.57-2.17,6.54-3.96,1.17-7.83-.69-9.32-4.59-1.5-3.92-1.37-7.7,1.43-11.09,3.4-4.11,8.07-5.31,12.84-4.05,7.51,1.98,14.21,5.8,20.31,11.53-3.54-.52-6.57-1.17-9.62-1.31-1.3-.06-2.71.85-3.94,1.55-1.47.83-2.81,1.89-4.21,2.85-.71-1.63-1.43-3.26-2.42-5.53Z"/>
          <path class="cls-2" d="m314.4,43.86c-.88-.82-1.77-1.64-2.64-2.48-4.26-4.09-8.06-3.46-10.12,1.98-1,2.65-1.3,5.57-1.88,8.37-.47,2.26-.89,4.54-1.33,6.8-.53-.01-1.06-.03-1.59-.04-.41-2.61-.7-5.26-1.28-7.83-.67-3-1.24-6.11-2.52-8.86-1.62-3.48-5.46-3.91-8.47-1.35-1.21,1.03-2.32,2.19-3.58,3.39-.57-3.33,1.99-7.7,5.55-9.9,3.1-1.92,6.16-1.93,9.02.36,1.26,1.01,2.06,1.75,3.81.5,5.16-3.69,11.1-1.98,14.08,3.88.75,1.47,1.13,3.13,1.67,4.7-.24.15-.48.31-.72.46Z"/>
          <path class="cls-2" d="m185.13-1.14c-7.85,1.01-16.67-.31-21.33,8.41-.7,1.32-.62,3.06-.94,4.77,2.3-.31,4.18-1.16,5.29-.57,1.53.82,3.37,2.68,3.44,4.17.08,1.66-1.29,3.93-2.72,5-2.73,2.04-5.89,1.81-8.68-.35-3.28-2.54-4.85-5.83-4.09-10.03,1.45-8.02,7.51-13.33,16.4-13.75,4.23-.2,8.5.51,12.76.81-.04.51-.08,1.02-.12,1.53Z"/>
          <path class="cls-2" d="m296.75,12.72c-1.26,1.42-2.15,2.33-2.92,3.32-1.44,1.83-2.2,3.56-.54,5.91,1.52,2.14.49,5.67-1.46,6.71-2.26,1.21-5.22-.06-6.54-2.83-1.78-3.74-.49-6.98,1.77-10,2.31-3.08,5.42-3.97,9.69-3.12Z"/>
          <path class="cls-2" d="m286.94,53.88c-1.61-2.56-3.94-4.8-3.5-5.91.8-1.99,3.28-3.3,5.06-4.89,1.17,1.77,3.37,3.63,3.23,5.28-.14,1.67-2.6,3.15-4.79,5.52Z"/>
        </g>
        <g>
          <path class="cls-2" d="m57.33,42.05c3.37,1.04,6.3,1.66,8.95,2.89,1.43.66,3.22,2.28,3.38,3.63.39,3.39,2.43,4.36,5.13,5.51,3.48,1.48,4.65,4.89,4.37,8.4-.67,8.41-5.67,14.21-12.31,18.75-2.04,1.4-3.7.24-3.44-2.24.21-1.94.73-3.86,1.18-5.77,2.76-11.63-3.83-21.53-15.72-23.19-15.36-2.14-28.49,2.49-39.31,13.61-5.11,5.25-6.05,13.44-2.36,19.93,3.47,6.11,11.25,9.42,18.22,7.76,5.88-1.4,10.24-7.77,9.28-13.68-.58-3.53-2.78-5.78-6.08-6.95-3.72-1.33-7.09-.51-10.01,2.03-1.1.96-1.99,2.16-3.04,3.31-2.97-6.21,1.47-14.21,8.25-14.92,5.01-.53,9.6.37,13.22,4.51.92,1.06,2.98,1.51,4.53,1.57,5.67.19,8.15,1.56,9.5,5.73,1.04,3.2-.94,8.15-4.06,10.8-1.26,1.07-2.65,2.39-3.15,3.87-3.12,9.3-9.6,13.91-19.52,12.94-8.96-.87-15.57-5.49-19.42-13.77-3.8-8.18-4.63-16.34,1.2-23.92,2.14-2.79,4.89-5.3,7.81-7.25,7.88-5.27,15.79-10.55,24.08-15.12,12.17-6.72,9.49-17.62,2.53-24.62-.15-.16-.23-.39-.34-.59,4.07-1.74,10.12.64,14.66,5.75,3.54,3.99,2.82,9.9-1.96,19.05,3.33-1.82,7.16-3.09,9.89-5.57,7.01-6.37,9.62-14.7,7.83-23.95-.72-3.72-3.91-6.22-7.58-7.58-2.3-.85-3.28.74-4.31,2.44-.63,1.05-1.73,1.81-2.62,2.71-1.03-1.13-2.61-2.1-2.99-3.42-2.01-6.96,2.52-12.23,9.68-11.78,1.22.08,2.48-1.03,3.77-1.44,1.36-.44,2.78-.7,4.18-1.04.14,1.16.51,2.35.39,3.48-.34,3.15-.15,5.97,1.36,9.01,3.08,6.19,3.55,12.86,1.64,19.6-.3,1.05-.57,2.1-.85,3.15.28.15.55.3.83.46,1.88-2.53,3.84-5.01,5.63-7.61,4.96-7.16,8.19-15.07,8.99-23.74.45-4.86-.99-9.4-4.97-12.74-4.87-4.08-10.27-6.09-16.3-2.95-3.52,1.83-6.67,4.36-9.9,6.53-1.57-3.81.54-11.18,4.85-15.06,4.14-3.72,8.73-6.11,14.56-4.06.69.24,1.84.03,2.44-.42,4.31-3.23,8.77-3.04,12.78.47,4.51,3.96,5.99,9.19,6.47,14.86.15,1.78.02,3.59.02,5.38.38.25.76.5,1.14.75,4-2.98,8.14-5.79,11.96-8.98,3.86-3.22,7.4-6.81,11.22-10.37-.12,6.36-2.24,12.16-5.74,17.55-3.82,5.89-9.49,9.31-15.8,11.97-1.26.53-2.85,1.6-3.18,2.74-1.92,6.52-5.87,11.79-9.99,16.93-6.63,8.26-14.22,15.51-23.5,20.79-2.37,1.35-4.86,2.51-7.48,3.85Z"/>
          <path class="cls-2" d="m28.24-28.76c3.52-3.64,4.4-7.74,4.98-11.84.17-1.17-.66-2.67-1.43-3.73-1.38-1.88-2.89-2.16-4.26.25-.6,1.07-1.43,2.42-2.44,2.75-1.36.44-3.31.5-4.42-.2-.93-.59-1.52-2.56-1.38-3.82.49-4.28,4.11-7.94,7.68-8.26,4.99-.45,8.47,1.73,10.28,6.44.24.63.43,1.29.71,2.13,2.7-1.3,5.27-2.82,7.9,0,2.76,2.98,2.97,7.11-.21,10.64-2.44,2.71-5.36,4.99-8.11,7.42-.74.65-1.64,1.13-2.46,1.69.04.39.08.79.11,1.18,2,.05,4.01.17,6.01.14,1.6-.03,3.27-.58,4.78-.27.99.2,2.31,1.43,2.47,2.36.19,1.12-.37,2.92-1.23,3.52-1.33.92-3.32,1.72-4.82,1.45-9.23-1.69-15.94,2.48-22.51,8.3C14.8-4.13,8.81-.69,3.3,3.29c-2.31,1.67-4.34,1.67-6.59-.14-8-6.45-16.02-12.88-24.16-19.16-1.1-.85-2.89-1.12-4.36-1.12-4.23,0-8.47.57-12.67.3-2.51-.16-4.74-1.76-3.89-4.96.9-3.35,3.38-2.83,5.88-2.12,2.04.58,4.11,1.07,6.17,1.6.2-.33.4-.67.6-1-.93-1-1.84-2.02-2.8-2.99-2.75-2.79-5.78-5.35-8.22-8.39-2.83-3.53-2.56-7.45.07-10.07,2.68-2.66,5.18-2.49,9.47.64.16.11.43.07.72.11.35-1.77.44-3.64,1.08-5.29,1.8-4.63,5.77-6.21,10.48-4.4,3.62,1.39,6.75,7.6,5.26,10.95-.43.96-1.9,2.12-2.82,2.06-1.41-.1-2.84-1.05-4.11-1.87-1.28-.82-2.37-1.92-3.55-2.9-.92,1.96-2.56,3.91-2.6,5.9-.09,3.5.76,7.03,3.61,9.68.97-1.89,1.68-3.72,2.79-5.24.58-.8,2.19-1.72,2.79-1.44,1.09.51,2.11,1.76,2.54,2.93.41,1.1.24,2.55-.04,3.76-1.42,6.21-.36,11.95,4.2,16.38C-12.16-8.92-6.96-4.86-1.82-.78-1.08-.2,1-.22,1.66-.82c5.44-4.98,10.8-10.04,15.94-15.33,2.67-2.74,3.7-6.29,3.34-10.24-.21-2.29-.22-4.66.17-6.92.2-1.19,1.46-2.19,2.24-3.27,1.02.83,2.36,1.46,3,2.52.86,1.43,1.17,3.19,1.89,5.3Z"/>
          <path class="cls-2" d="m25.34,15.07c-.14.66-.07,1.51-.46,1.95-.9,1.03-2.02,1.86-3.06,2.77-.5-1.24-1.14-2.45-1.47-3.74-.33-1.29-.36-2.67-.52-4.01-.37,0-.74,0-1.11,0-.44.89-.71,1.91-1.34,2.63-1.29,1.47-2.54,1.56-3.32-.57q-1.88-5.14-7.37-4.55c-1.69.19-3.38.4-5.49-.16,2.32-1.47,4.5-3.31,7-4.34,9.3-3.84,21.65-1.74,27.54,8.01,4.29,7.1,2.72,18.18-8.56,19.78-3.24.46-6.49-.08-8.33-2.95-.97-1.52-1.47-4.27-.72-5.68.75-1.41,3.29-1.94,5.13-2.66,1.34-.53,3.88-.51,4.02-1.14.36-1.73-.25-3.66-.48-5.51-.48.06-.97.12-1.45.17Z"/>
          <path class="cls-2" d="m-15.82,104.55c.8,1.27,1.39,2.77,2.44,3.78,3.37,3.21,7.05,2.73,9.07-1.39,1.19-2.42,1.67-5.22,2.22-7.9.56-2.76.81-5.58,1.19-8.38.52-.04,1.04-.09,1.55-.13.48,2.19,1.01,4.37,1.44,6.57.56,2.82.7,5.77,1.63,8.46,1.84,5.29,6.23,6.19,10.23,2.37.9-.86,1.8-1.71,2.84-2.69.69,5.52-3.96,10.26-12.02,11.91,2.08,1.37,3.67,2.42,6.02,3.96-1.82.96-3.17,2.18-4.62,2.31-2.19.2-3.28.78-3.67,3.1-.22,1.3-1.46,2.44-2.23,3.64-.87-1.23-2.05-2.35-2.52-3.71-.63-1.83-1.21-2.96-3.48-3.02-1.25-.03-2.47-1.28-3.71-1.97.89-.89,1.77-1.78,2.68-2.65.48-.46.99-.88,1.93-1.7-7.06-1.01-11.09-4.74-12.44-11.16.49-.47.97-.94,1.46-1.4Z"/>
          <path class="cls-2" d="m31.68-2.86c.14,2.09.43,3.06.2,3.88-.25.92-.78,2.02-1.53,2.44-.55.31-2.08-.06-2.43-.61C24.34-2.69,19.49-.98,14.67.37c-.18.05-.43-.1-.64-.16,3.39-5.98,18.62-12.81,25.01-11.24,6.24,1.54,9.83,6.69,8.87,12.92-.52,3.38-2.42,5.76-5.76,6.69-2.55.71-5.25.84-6.85-1.73-.62-.99-.46-2.64-.26-3.93.19-1.19,1.62-2.96,1.29-3.31-.97-1.02-2.56-1.45-4.65-2.47Z"/>
          <path class="cls-2" d="m16.76,43.86c-.88-.82-1.77-1.64-2.64-2.48-4.26-4.09-8.06-3.46-10.12,1.98-1,2.65-1.3,5.57-1.88,8.37-.47,2.26-.89,4.54-1.33,6.8-.53-.01-1.06-.03-1.59-.04-.41-2.61-.7-5.26-1.28-7.83-.67-3-1.24-6.11-2.52-8.86-1.62-3.48-5.46-3.91-8.47-1.35-1.21,1.03-2.32,2.19-3.58,3.39-.57-3.33,1.99-7.7,5.55-9.9,3.1-1.92,6.16-1.93,9.02.36,1.26,1.01,2.06,1.75,3.81.5,5.16-3.69,11.1-1.98,14.08,3.88.75,1.47,1.13,3.13,1.67,4.7-.24.15-.48.31-.72.46Z"/>
          <path class="cls-2" d="m135.04,12.22c-.45-2.03-.45-3.88-1.23-5.28-3.58-6.43-9.99-7.17-16.4-7.73-1.57-.14-3.16-.02-4.74-.02-.29-.44-.59-.89-.88-1.33.56-.13,1.12-.25,1.69-.38,7.51-1.71,14.86-2.01,21.7,2.4,4.84,3.12,6.79,7.78,6.54,13.3-.3,6.43-7.45,10.67-12.68,7.75-2.8-1.56-3.92-4.12-2.7-6.62,1.37-2.81,3.46-3.94,6.5-2.32.36.19.87.11,2.22.24Z"/>
          <path class="cls-2" d="m1.06,12.81c7.53-2.35,13.04,5.31,12.01,10.74-.36,1.92-2.18,3.89-3.87,5.1-.81.59-3.35-.03-4.22-.95-1.67-1.75-1.58-3.97-.44-6.39.62-1.32.2-3.42-.37-4.93-.48-1.27-1.87-2.2-3.11-3.57Z"/>
          <path class="cls-2" d="m9.94,42.49c1.69,1.69,4.4,3.2,4.71,5.11.23,1.38-2.47,4.01-4.36,4.67-.97.34-3.54-2.12-4.43-3.82-.82-1.56,2.14-5.42,4.08-5.96Z"/>
        </g>
      </g>
    </pattern>
  </defs>
  <rect class="cls-3" x="0" width="2834.65" height="2834.65"/>
  <rect class="cls-4" x="0" y="0" width="2834.65" height="2834.65"/>
</svg>