<svg width="354" height="354" viewBox="0 0 354 354" fill="none" xmlns="http://www.w3.org/2000/svg">
<path d="M259.349 1.00212C253.725 0.924353 248.282 2.99184 244.127 6.78412H244.112L243.375 7.44787L125.788 137.484L57.1562 81.1979L51.153 76.0354C49.0825 74.3143 46.5804 73.1927 43.9179 72.7923C41.2554 72.3919 38.5341 72.7279 36.049 73.7639L35.872 73.8376L9.07125 84.9001L7.9355 85.4311L7.24225 85.8441L6.68175 86.1686L5.97375 86.6701L5.53125 87.0241L4.88225 87.5551L4.35125 88.0419L3.87925 88.5581L3.3925 89.1186L2.87625 89.7676L2.52225 90.2691L2.05025 91.0066L1.75525 91.5229L1.40125 92.2604L1.10625 92.9241L0.87025 93.5731L0.63425 94.2664L0.413 95.0776L0.2655 95.6676L0.1475 96.4641L0.059 97.2016L0 98.4259V255.749C0.0171564 258.645 0.886512 261.472 2.49965 263.878C4.11279 266.283 6.39833 268.16 9.07125 269.275L35.872 280.544C38.3914 281.593 41.1522 281.921 43.8474 281.494C46.5425 281.067 49.0664 279.901 51.1383 278.125L57.1562 272.963L125.788 216.691L243.39 346.713L244.452 347.671L245.292 348.409L246.148 349.028L247.077 349.677L248.036 350.238L248.995 350.769L249.998 351.226L251.03 351.669L252.107 352.037L253.081 352.332L254.261 352.627L255.263 352.834L256.37 352.981L257.476 353.099L258.553 353.144H259.689L260.839 353.07L261.827 352.967L263.11 352.745L263.995 352.568L265.175 352.244L266.179 351.949L267.211 351.536L268.539 350.99L341.462 315.929C344.137 314.639 346.525 312.823 348.483 310.59C348.946 310.055 349.388 309.504 349.811 308.938L349.87 308.835C350.286 308.235 350.68 307.62 351.05 306.991C351.375 306.411 351.68 305.821 351.964 305.221L352.097 304.97L352.687 303.377L352.909 302.831L353.351 301.253L353.484 300.707L353.735 299.232L353.852 298.495L353.941 297.167L354 295.987V57.7011C353.979 56.962 353.929 56.224 353.852 55.4886C353.401 51.8035 352.03 48.2913 349.864 45.2755C347.699 42.2596 344.81 39.8371 341.462 38.2311L268.539 3.17037C265.67 1.80201 262.541 1.06752 259.364 1.01687L259.349 1.00212ZM265.5 102.143V252.047L174.079 177.117L265.5 102.143ZM44.25 126.539L89.9602 177.088L44.2353 227.621L44.25 126.539Z" fill="white"/>
</svg>
